<svg width="24" height="24" viewBox="0 0 24 24" fill="none" xmlns="http://www.w3.org/2000/svg">
<path d="M12 22C6.477 22 2 17.523 2 12C2 6.477 6.477 2 12 2C17.523 2 22 6.477 22 12C22 17.523 17.523 22 12 22ZM12 20C14.1217 20 16.1566 19.1571 17.6569 17.6569C19.1571 16.1566 20 14.1217 20 12C20 9.87827 19.1571 7.84344 17.6569 6.34315C16.1566 4.84285 14.1217 4 12 4C9.87827 4 7.84344 4.84285 6.34315 6.34315C4.84285 7.84344 4 9.87827 4 12C4 14.1217 4.84285 16.1566 6.34315 17.6569C7.84344 19.1571 9.87827 20 12 20ZM8.08 15.394C8.02826 15.2732 8.00082 15.1434 7.99925 15.0119C7.99769 14.8805 8.02202 14.7501 8.07086 14.6281C8.11971 14.506 8.1921 14.3948 8.28392 14.3008C8.37574 14.2068 8.48518 14.1317 8.606 14.08C8.72682 14.0283 8.85664 14.0008 8.98806 13.9993C9.11948 13.9977 9.24992 14.022 9.37194 14.0709C9.49395 14.1197 9.60516 14.1921 9.69919 14.2839C9.79323 14.3757 9.86826 14.4852 9.92 14.606C10.0948 15.0127 10.385 15.3592 10.7547 15.6027C11.1244 15.8462 11.5573 15.976 12 15.976C12.4427 15.976 12.8756 15.8462 13.2453 15.6027C13.615 15.3592 13.9052 15.0127 14.08 14.606C14.1317 14.4852 14.2068 14.3757 14.3008 14.2839C14.3948 14.1921 14.506 14.1197 14.6281 14.0709C14.7501 14.022 14.8805 13.9977 15.0119 13.9993C15.1434 14.0008 15.2732 14.0283 15.394 14.08C15.5148 14.1317 15.6243 14.2068 15.7161 14.3008C15.8079 14.3948 15.8803 14.506 15.9291 14.6281C15.978 14.7501 16.0023 14.8805 16.0007 15.0119C15.9992 15.1434 15.9717 15.2732 15.92 15.394C15.5915 16.1615 15.0449 16.8156 14.3481 17.2753C13.6513 17.7351 12.8348 17.9801 12 17.9801C11.1652 17.9801 10.3487 17.7351 9.65189 17.2753C8.95506 16.8156 8.4085 16.1615 8.08 15.394ZM9 8C9.26522 8 9.51957 8.10536 9.70711 8.29289C9.89464 8.48043 10 8.73478 10 9V11C10 11.2652 9.89464 11.5196 9.70711 11.7071C9.51957 11.8946 9.26522 12 9 12C8.73478 12 8.48043 11.8946 8.29289 11.7071C8.10536 11.5196 8 11.2652 8 11V9C8 8.73478 8.10536 8.48043 8.29289 8.29289C8.48043 8.10536 8.73478 8 9 8ZM15 8C15.2652 8 15.5196 8.10536 15.7071 8.29289C15.8946 8.48043 16 8.73478 16 9V11C16 11.2652 15.8946 11.5196 15.7071 11.7071C15.5196 11.8946 15.2652 12 15 12C14.7348 12 14.4804 11.8946 14.2929 11.7071C14.1054 11.5196 14 11.2652 14 11V9C14 8.73478 14.1054 8.48043 14.2929 8.29289C14.4804 8.10536 14.7348 8 15 8Z" fill="#FF6600"/>
</svg>
