<svg width="20" height="20" viewBox="0 0 20 20" fill="none" xmlns="http://www.w3.org/2000/svg">
<path d="M4.25798 6.884L9.96998 16.977L15.588 7.147C14.258 7.042 12.876 6.694 11.346 6.155C10.951 6.015 10.748 5.984 10.566 6.007C10.412 6.027 8.84298 6.576 7.92298 6.809C6.76198 7.103 5.53898 7.126 4.25798 6.884ZM2.84798 4.394C4.54998 5.064 6.07198 5.214 7.43198 4.87C8.16998 4.683 9.90998 4.074 10.315 4.023C10.844 3.956 11.345 4.033 12.011 4.268C13.785 4.894 15.307 5.224 16.714 5.177L17.601 3.625C15.2 2.54818 12.5974 1.99427 9.96598 2C7.35889 1.99449 4.77988 2.5383 2.39698 3.596L2.84798 4.393V4.394ZM0.541977 2.268C3.45695 0.769821 6.68855 -0.00790038 9.96598 -1.46295e-06C13.328 -1.46295e-06 16.572 0.799999 19.462 2.306C19.5813 2.3682 19.6869 2.45386 19.7723 2.55783C19.8578 2.66181 19.9214 2.78196 19.9593 2.9111C19.9972 3.04023 20.0087 3.17569 19.993 3.30936C19.9773 3.44303 19.9348 3.57215 19.868 3.689L10.834 19.496C10.7463 19.6492 10.6196 19.7765 10.4667 19.8649C10.3139 19.9533 10.1404 19.9996 9.96381 19.9992C9.78726 19.9988 9.61397 19.9516 9.46154 19.8626C9.30911 19.7735 9.18298 19.6456 9.09598 19.492L0.129977 3.65C0.0638986 3.53292 0.0221075 3.40371 0.00710242 3.27011C-0.00790266 3.13651 0.00418643 3.00125 0.0426469 2.87242C0.0811074 2.7436 0.145149 2.62385 0.230944 2.52035C0.316739 2.41684 0.422525 2.33169 0.541977 2.27V2.268ZM7.99998 10C7.73476 10 7.48041 9.89464 7.29287 9.7071C7.10533 9.51957 6.99998 9.26521 6.99998 9C6.99998 8.73478 7.10533 8.48043 7.29287 8.29289C7.48041 8.10536 7.73476 8 7.99998 8C8.26519 8 8.51955 8.10536 8.70708 8.29289C8.89462 8.48043 8.99998 8.73478 8.99998 9C8.99998 9.26521 8.89462 9.51957 8.70708 9.7071C8.51955 9.89464 8.26519 10 7.99998 10ZM11 13C10.7348 13 10.4804 12.8946 10.2929 12.7071C10.1053 12.5196 9.99998 12.2652 9.99998 12C9.99998 11.7348 10.1053 11.4804 10.2929 11.2929C10.4804 11.1054 10.7348 11 11 11C11.2652 11 11.5195 11.1054 11.7071 11.2929C11.8946 11.4804 12 11.7348 12 12C12 12.2652 11.8946 12.5196 11.7071 12.7071C11.5195 12.8946 11.2652 13 11 13Z" fill="#FF6600"/>
</svg>
