<svg xmlns="http://www.w3.org/2000/svg" xmlns:xlink="http://www.w3.org/1999/xlink" fill="#ff6600" version="1.1" x="0px" y="0px" viewBox="0 0 160 200" style="enable-background:new 0 0 160 160;" xml:space="preserve"><g><rect x="27.3" y="140.9" transform="matrix(0.27 -0.9629 0.9629 0.27 -111.6068 138.53)" width="16.5" height="4"/><rect x="122.4" y="134.6" transform="matrix(0.9628 -0.2701 0.2701 0.9628 -33.968 38.9285)" width="4" height="16.5"/><rect x="78" y="137.8" width="4" height="18.1"/><path d="M12.1,104.1c-0.9-1.9-1.1-4-0.6-6l4.6-16.4c0.5-1.7,1.8-2.9,3.3-3l16.3-1.7c0.6-0.1,1.2,0.1,1.7,0.6c0.6,0.5,1,1.4,1,2.3   c0,0.2,0,0.4,0,0.6c0,0.1,0,0.3-0.1,0.4l0.1-0.1l5-3.2L50,54.5c0.3-1.1,1-2,1.9-2.4c0.8-0.4,1.7-0.5,2.5-0.2c2,0.7,3.1,3.1,2.5,5.3   l-4,14.3l5-3.2l1.7-6.2c0.3-1.1,1-2,1.9-2.4c0.8-0.4,1.7-0.5,2.5-0.2c1.4,0.5,2.3,1.8,2.6,3.3c1.2-0.7,2.4-1.3,3.7-1.8   c-0.8-2.4-2.5-4.4-4.9-5.2c-1.4-0.5-2.9-0.5-4.3-0.1c-0.2-3.3-2.2-6.4-5.3-7.4c-1.9-0.7-3.9-0.5-5.7,0.4c-1.9,1-3.3,2.7-3.9,4.8   c-0.8-0.9-1.9-1.6-3.1-2.1c-1.9-0.7-3.9-0.5-5.7,0.4c-1.9,1-3.3,2.8-3.9,4.9l-4.7,16.9l-9.7,1c-3.2,0.3-5.8,2.7-6.7,5.9L7.7,97   c-0.8,3-0.5,6.1,0.9,8.9l8.1,16.3c0.7,1.4,0.9,3.1,0.4,4.6L12,144.9l3.9,1.1l5.1-18.1c0.7-2.5,0.4-5.2-0.7-7.5L12.1,104.1z    M37.3,57.7c0.3-1.1,1-2,1.9-2.4c0.8-0.4,1.7-0.5,2.5-0.2c2,0.7,3.1,3.1,2.5,5.3l-4,14.2c-0.1,0-0.1-0.1-0.2-0.2   c-1.3-1.2-3-1.7-4.8-1.5L33,73.2L37.3,57.7z"/><path d="M151.5,105.9c1.4-2.8,1.7-5.9,0.9-8.9l-4.6-16.4c-0.9-3.3-3.6-5.6-6.7-5.9l-9.7-1l-4.7-16.9c-0.6-2.1-2-3.9-3.9-4.9   c-1.8-0.9-3.8-1.1-5.7-0.4c-1.2,0.4-2.3,1.1-3.1,2.1c-0.6-2.1-2-3.9-3.9-4.8c-1.8-0.9-3.8-1.1-5.7-0.4c-3.1,1.1-5.2,4.1-5.3,7.4   c-1.4-0.4-2.9-0.4-4.3,0.1c-2.4,0.8-4.2,2.8-4.9,5.2c1.3,0.5,2.5,1.1,3.7,1.8c0.2-1.5,1.2-2.8,2.6-3.3c0.8-0.3,1.7-0.2,2.5,0.2   c0.9,0.5,1.6,1.3,1.9,2.4l1.7,6.1l5,3.2L104.2,61c0,0,0,0,0,0l-1.1-3.8c-0.6-2.2,0.5-4.6,2.5-5.3c0.8-0.3,1.7-0.2,2.5,0.2   c0.9,0.5,1.6,1.3,1.9,2.4l6.3,22.8l5,3.2l0.2,0.1c0-0.1,0-0.2,0-0.3c0-0.2,0-0.4,0-0.6c0-0.9,0.4-1.7,1-2.3   c0.5-0.4,1.1-0.6,1.7-0.6l16.3,1.7c1.5,0.2,2.8,1.4,3.3,3l4.6,16.4c0.6,2,0.4,4.2-0.6,6l-8.1,16.3c-1.2,2.3-1.4,5-0.7,7.5l5.1,18.1   l3.9-1.1l-5.1-18.1c-0.4-1.5-0.3-3.2,0.4-4.6L151.5,105.9z M124.7,72.9c-1.7-0.2-3.4,0.4-4.8,1.5c-0.1,0-0.1,0.1-0.2,0.2l-4-14.2   c-0.6-2.2,0.5-4.6,2.5-5.3c0.8-0.3,1.7-0.2,2.5,0.2c0.9,0.5,1.6,1.3,1.9,2.4l4.3,15.4L124.7,72.9z"/><path d="M42.9,35.6c5.4,6.1,12.9,10.3,21,11.7c1.4,0.3,2.8,0.4,4.3,0.4c2.5,0,5-0.4,7.4-1.1l2.6-0.8v16.4   c-3.6,0.3-7.2,1.5-10.4,3.5l-31.2,20l1.2,0.7c0.9,0.5,1.8,1,2.7,1.6L69.7,69c6.3-4,14.3-4,20.6,0l29.5,18.8   c0.8-0.6,1.7-1.1,2.6-1.6l1.3-0.7L92.4,65.7c-3.2-2-6.8-3.2-10.5-3.5V33.7l2.1,0.7c2.4,0.8,4.9,1.1,7.3,1.1c1.4,0,2.9-0.1,4.3-0.4   c8.1-1.4,15.5-5.6,21-11.7c3.7-4.2,8.6-7.2,14.1-8.5l3.5-0.9l-2.8-2.8c-6-5.8-14.3-8.6-22.4-7.5L107.5,4   c-8.9,1.2-16.8,5.8-22.3,12.7c-2.2,2.8-3.9,5.9-5,9.2l-1.4,4.2c-0.5,1.5-0.8,3.1-0.8,4.8c-1-2.1-2.2-4.1-3.7-6   c-5.5-7-13.5-11.5-22.3-12.7L50.7,16l-0.2,0c-8.1-1.1-16.4,1.7-22.4,7.5l-2.8,2.8l3.5,0.9C34.2,28.5,39.1,31.4,42.9,35.6z    M88.3,19.2C93.2,13.1,100.2,9.1,108,8l1.5-0.2c5.9-0.8,11.9,0.8,16.7,4.4c-4.8,1.8-9.1,4.8-12.6,8.6c-4.8,5.4-11.5,9.1-18.7,10.4   c-3,0.5-6.1,0.4-9.1-0.5c4.7-6,14.3-16.2,14.3-16.2l-0.2,0.1c-6.1,2.8-11.5,6.9-15.8,11.9C85.2,23.9,86.5,21.4,88.3,19.2z M50,19.9   l0.1,0l1.3,0.2c7.8,1.1,14.8,5.1,19.7,11.3c1.7,2.1,3,4.5,4,7.1c-3.9-3.2-8.5-5.6-13.5-6.7c0,0,8.3,7.4,11.9,10.6l0.5,0.4   c-3.1,1-6.4,1.2-9.6,0.6c-7.2-1.3-13.8-5-18.7-10.4c-3.5-3.9-7.8-6.8-12.6-8.6C38.1,20.8,44.1,19.1,50,19.9z"/><path d="M63.5,127.3l-6.6,5.6c-1.7,1.5-3,3.4-3.6,5.6l-4.7,16.9l3.9,1.1l4.7-16.9c0.4-1.4,1.2-2.7,2.4-3.7l6.6-5.6   c0.6-0.5,1.2-1.1,1.7-1.7v-7.1C66.9,123.7,65.4,125.7,63.5,127.3z"/><path d="M103,132.9l-6.6-5.6c-1.9-1.6-3.3-3.5-4.3-5.7v7.1c0.5,0.6,1.1,1.2,1.7,1.7l6.6,5.6c1.1,1,2,2.2,2.4,3.7l4.7,16.9l3.9-1.1   l-4.7-16.9C106,136.3,104.8,134.4,103,132.9z"/><path d="M70.6,112.8l-20.4-5.7c-1.9-7.8-6.9-14.4-14-18.2l-11-6l-1.9,3.5l11,6c6.4,3.5,10.9,9.6,12.2,16.7l0.2,1.2l22.8,6.4   l1.4,0.4v7.4v22.3h4V114l-0.5-0.1L70.6,112.8z"/><path d="M123.9,88.9c-7.1,3.8-12.1,10.4-14,18.2l-20.4,5.7l-3.9,1.1l-0.5,0.1v32.7h4v-22.3v-7.4l1.4-0.4l22.8-6.4l0.2-1.2   c1.4-7.1,5.8-13.2,12.2-16.7l11-6l-1.9-3.5L123.9,88.9z"/></g></svg>