<svg xmlns="http://www.w3.org/2000/svg" data-name="Layer 1" fill="#ff6600"  viewBox="0 0 95 118.75" x="0px" y="0px"><path d="M90.414,15.739,75.994,1.319A1.089,1.089,0,0,0,75.224,1H24.614a1.09,1.09,0,0,0-1.09,1.09V8.564L8.957,10.518a1.089,1.089,0,0,0-.936,1.225L13.809,54.9l-1.784,1.485H9.588a2.1,2.1,0,0,0-2.1,2.1V61.2a2.1,2.1,0,0,0,2.1,2.1h3.574v2.3a2,2,0,0,0,1.686,1.976V79.245a2,2,0,0,0-1.686,1.976v2.3H9.377A1.888,1.888,0,0,0,7.492,85.4v1.86H6.324a2.061,2.061,0,0,0-2.058,2.058v2.62A2.061,2.061,0,0,0,6.324,94H60.529a2.06,2.06,0,0,0,2.058-2.058v-2.62a2.06,2.06,0,0,0-2.058-2.058H59.362V86.146l4.215-.565H89.644a1.09,1.09,0,0,0,1.09-1.09V16.51A1.09,1.09,0,0,0,90.414,15.739ZM76.314,4.721l10.7,10.7h-10.7ZM10.327,12.533l13.2-1.77V46.805l-7.736,6.443Zm22.165,29.64a1.444,1.444,0,0,1,1.87,0l17.06,14.208H15.432ZM9.671,58.561H23.524v.033H25.7v-.033H57.182v2.557H9.671ZM43.779,83.519V81.4h7.733v2.122ZM21.389,67.6V79.217H17.027V67.6ZM25.7,63.3H41.6v2.3a2,2,0,0,0,1.685,1.976V79.245A2,2,0,0,0,41.6,81.221v2.3H25.7Zm19.761,15.92V67.6h4.361V79.217Zm6.047-13.8H43.779V63.3h7.733ZM23.074,63.3v2.122H15.341V63.3ZM15.341,81.4h7.733v2.122H15.341ZM60.408,91.82H6.446V89.444H60.408ZM9.671,87.264V85.7H57.182v1.566ZM53.692,83.4v-2.18a2,2,0,0,0-1.686-1.976V67.571A2,2,0,0,0,53.692,65.6V63.3h3.574a2.1,2.1,0,0,0,2.1-2.1V59.219H80.871a1.09,1.09,0,1,0,0-2.18H58.786a2.086,2.086,0,0,0-1.52-.658H54.828l-5.667-4.719h31.71a1.09,1.09,0,0,0,0-2.18H46.544l-6.456-5.377H80.871a1.09,1.09,0,1,0,0-2.179h-43.4L35.757,40.5a3.641,3.641,0,0,0-4.66,0L25.7,44.99V3.18h48.43V16.51a1.09,1.09,0,0,0,1.09,1.09h13.33V83.4ZM47.533,26.15a1.09,1.09,0,0,1,1.089-1.09H71.537a1.09,1.09,0,0,1,0,2.179H48.622A1.09,1.09,0,0,1,47.533,26.15ZM77.615,67.47a1.09,1.09,0,0,1-1.09,1.09h-9.91a1.09,1.09,0,1,1,0-2.18h9.91A1.09,1.09,0,0,1,77.615,67.47Zm4.346-33.764a1.09,1.09,0,0,1-1.09,1.09H48.622a1.09,1.09,0,0,1,0-2.18H80.871A1.09,1.09,0,0,1,81.961,33.706Zm-39.4-12.319v1.786a1.09,1.09,0,0,1-2.18,0V21.387a.556.556,0,0,0-.549-.549H37.039a.557.557,0,0,0-.55.549v4.4a.557.557,0,0,0,.55.549H39.83a2.732,2.732,0,0,1,2.729,2.729v4.4a2.732,2.732,0,0,1-2.729,2.729h-.306V37.71a1.09,1.09,0,1,1-2.18,0V36.185h-.3a2.732,2.732,0,0,1-2.729-2.729V31.67a1.09,1.09,0,1,1,2.179,0v1.786a.557.557,0,0,0,.55.549H39.83a.556.556,0,0,0,.549-.549v-4.4a.557.557,0,0,0-.549-.55H37.039a2.732,2.732,0,0,1-2.729-2.728v-4.4a2.732,2.732,0,0,1,2.729-2.729h.3V17.134a1.09,1.09,0,0,1,2.18,0v1.524h.306A2.732,2.732,0,0,1,42.559,21.387ZM33.427,46.405a4.28,4.28,0,1,0,4.28,4.28A4.285,4.285,0,0,0,33.427,46.405Zm0,6.38a2.1,2.1,0,1,1,2.1-2.1A2.1,2.1,0,0,1,33.427,52.785Z"/></svg>