<svg xmlns="http://www.w3.org/2000/svg" xmlns:xlink="http://www.w3.org/1999/xlink" xml:space="preserve" version="1.1" style="shape-rendering:geometricPrecision;text-rendering:geometricPrecision;image-rendering:optimizeQuality;" fill="#ff6600" viewBox="0 0 846.66 1058.325" x="0px" y="0px" fill-rule="evenodd" clip-rule="evenodd"><defs><style type="text/css">
   
    .fil0 {fill:#ff6600;fill-rule:nonzero}
   
  </style></defs><g><path class="fil0" d="M23.8 440.03c0,-53.13 54.21,-76.4 97.75,-88.45 48.52,-13.42 107.59,-18.83 154.7,-22.31 19.58,-11.93 113.29,-68.61 130.68,-70.78 36.7,-4.55 270.65,3.32 295.22,23.42 15.11,12.36 25.26,27.33 30.9,37.19l60.02 0c14.11,60.17 21.11,116.62 29.79,177.3l-75.8 37.16c3.93,-12.97 5.09,-26.78 3.36,-40.22l34.63 -16.97c-3.42,-25.2 -11.62,-83.11 -19.72,-122.49l-54.25 0c-7.82,-18.22 -14.53,-31.65 -30.94,-45.08 -12.7,-10.4 -242.65,-19.06 -269,-15.8 -13.18,1.66 -103.85,57.93 -124,70.29 -51.29,3.74 -106.77,7.99 -156.35,21.72 -40.8,11.29 -71.75,28.02 -72.2,53.79l5.87 66.36 8.98 -0.04c0,12.02 2.01,23.58 6.29,34.82l-47.1 0.06 -8.83 -99.97zm288.25 -76.74l372.24 0 14.47 -5.08c-7.01,-16.26 -12.85,-27.84 -26.86,-39.32 -8.11,-6.63 -235.18,-15.91 -259.18,-12.95 -8.16,1.02 -67.71,37.16 -100.67,57.35zm342.23 58.41c46.2,0 83.87,37.66 83.87,83.87 0,46.2 -37.67,83.86 -83.87,83.86 -46.21,0 -83.88,-37.65 -83.88,-83.86 0,-46.22 37.68,-83.87 83.88,-83.87zm0 34.78c-27.21,0 -49.1,21.88 -49.1,49.09 0,27.21 21.89,49.08 49.1,49.08 27.2,0 49.09,-21.89 49.09,-49.08 0,-27.2 -21.89,-49.09 -49.09,-49.09zm-483.92 -34.78c46.23,0 83.87,37.63 83.87,83.87 0,46.28 -37.59,83.86 -83.87,83.86 -46.33,0 -83.87,-37.54 -83.87,-83.86 0,-46.29 37.58,-83.87 83.87,-83.87zm0 34.78c-27.17,0 -49.09,21.92 -49.09,49.09 0,27.12 21.96,49.08 49.09,49.08 27.17,0 49.09,-21.92 49.09,-49.08 0,-27.19 -21.9,-49.09 -49.09,-49.09zm96.89 47.18c93.81,-0.79 201.28,-1.76 290.21,-2.56 -0.49,12.03 1.06,23.72 4.92,35.19 -100.37,1.19 -200.75,2.23 -301.12,2.89 4.31,-11.61 6.12,-23.16 5.99,-35.52z"/></g></svg>