<svg xmlns="http://www.w3.org/2000/svg" xmlns:xlink="http://www.w3.org/1999/xlink" version="1.1" x="0px" y="0px" fill="#ff6600"  viewBox="0 0 64 80" style="enable-background:new 0 0 64 64;" xml:space="preserve"><g><path d="M22,31.814V21h4v-4.562c0.378-0.22,0.733-0.483,1.025-0.821c0.76-0.878,1.1-2.048,0.932-3.208   c-0.168-1.167-0.921-2.238-2.014-2.866c-0.669-0.385-1.365-0.568-2.069-0.541c-0.468-1.814-2.209-3.141-4.167-2.99   C18.84,3.091,16.125,1,13,1C9.14,1,6,4.14,6,8c0,0.007,0,0.014,0,0.021C4.753,8.96,4,10.434,4,12v10c0,1.654,1.346,3,3,3   c0.39,0,0.763-0.075,1.105-0.211C8.453,26.062,9.619,27,11,27c0.352,0,0.686-0.072,1-0.184v4.998C5.486,33.957,1,40.094,1,47   c0,8.822,7.178,16,16,16s16-7.178,16-16C33,40.094,28.514,33.957,22,31.814z M24,19H14v-2h10V19z M11,25c-0.551,0-1-0.449-1-1v-2   v-1H8v1c0,0.551-0.449,1-1,1s-1-0.449-1-1V12c0-1.078,0.57-2.047,1.525-2.593l0.558-0.318l-0.058-0.64C8.011,8.301,8,8.152,8,8   c0-2.757,2.243-5,5-5c2.493,0,4.621,1.863,4.95,4.334l0.167,1.249l1.178-0.445C20.718,7.602,22,8.673,22,9.971l-0.109,1.677   l1.432-0.519c0.579-0.209,1.081-0.166,1.624,0.147c0.556,0.319,0.952,0.863,1.032,1.418c0.086,0.594-0.079,1.167-0.464,1.613   C25.133,14.748,24.581,15,24,15H12v5v4C12,24.551,11.551,25,11,25z M17,61C9.28,61,3,54.72,3,47c0-6.266,4.222-11.809,10.267-13.48   L14,33.317V24v-3h6v12.317l0.733,0.203C26.778,35.191,31,40.734,31,47C31,54.72,24.72,61,17,61z"/><path d="M22,50c0,1.654,1.346,3,3,3s3-1.346,3-3s-1.346-3-3-3S22,48.346,22,50z M26,50c0,0.551-0.449,1-1,1s-1-0.449-1-1   s0.449-1,1-1S26,49.449,26,50z"/><path d="M11,44c1.654,0,3-1.346,3-3s-1.346-3-3-3s-3,1.346-3,3S9.346,44,11,44z M11,40c0.551,0,1,0.449,1,1s-0.449,1-1,1   s-1-0.449-1-1S10.449,40,11,40z"/><rect x="55" y="40" width="2" height="16"/><path d="M63,3.8V3.691C63,2.208,61.792,1,60.309,1c-1.226,0-2.297,0.829-2.605,2.016L51.226,28H33v6h2v24c0,2.757,2.243,5,5,5h16   c2.757,0,5-2.243,5-5V34h2v-6h-5.732l5.657-23.57C62.975,4.224,63,4.012,63,3.8z M61,32h-4v2h2v24c0,1.654-1.346,3-3,3H40   c-1.654,0-3-1.346-3-3v-2h4v-2h-4v-3h6v-2h-6v-4h4v-2h-4v-3h6v-2h-6v-4h18v-2H35v-2h26V32z M61,3.8   c0,0.054-0.006,0.108-0.019,0.162L55.212,28h-1.92l6.347-24.482C59.718,3.213,59.994,3,60.309,3C60.69,3,61,3.31,61,3.691V3.8z"/><path d="M35,13c2.206,0,4-1.794,4-4s-1.794-4-4-4s-4,1.794-4,4S32.794,13,35,13z M35,7c1.103,0,2,0.897,2,2s-0.897,2-2,2   s-2-0.897-2-2S33.897,7,35,7z"/><path d="M38,20c0,1.654,1.346,3,3,3s3-1.346,3-3s-1.346-3-3-3S38,18.346,38,20z M41,19c0.551,0,1,0.449,1,1s-0.449,1-1,1   s-1-0.449-1-1S40.449,19,41,19z"/><path d="M25,26c0,1.654,1.346,3,3,3s3-1.346,3-3s-1.346-3-3-3S25,24.346,25,26z M28,25c0.551,0,1,0.449,1,1s-0.449,1-1,1   s-1-0.449-1-1S27.449,25,28,25z"/><rect x="55" y="36" width="2" height="2"/><rect x="10" y="11" width="2" height="2"/><rect x="12" y="6" width="2" height="2"/><rect x="18" y="10" width="2" height="2"/><path d="M7,47H5c0,0.733,0.066,1.467,0.198,2.181l1.967-0.361C7.055,48.225,7,47.612,7,47z"/><path d="M7.682,50.636l-1.863,0.728C7.63,56.002,12.019,59,17,59v-2C12.849,57,9.191,54.502,7.682,50.636z"/></g></svg>