<svg xmlns="http://www.w3.org/2000/svg" data-name="Layer 1" viewBox="0 0 100 125" fill="#ff6600"  x="0px" y="0px"><path d="m50,89.96c.23,0,.45-.05.66-.15,7.46-3.65,14.55-8.85,21.08-15.45,7.15-7.24,11.26-17.44,11.26-27.98v-23.81c0-.74-.54-1.37-1.27-1.48-11.14-1.73-21.56-5.41-30.97-10.91-.47-.27-1.05-.27-1.52,0-9.41,5.5-19.83,9.18-30.97,10.91-.73.11-1.27.74-1.27,1.48v23.81c0,10.55,4.1,20.75,11.26,27.98,6.53,6.6,13.62,11.8,21.08,15.45.21.1.43.15.66.15Zm-30-43.59v-22.54c10.74-1.82,20.83-5.39,30-10.64,9.17,5.25,19.25,8.82,30,10.64v22.54c0,9.76-3.79,19.19-10.39,25.87-6.1,6.17-12.69,11.06-19.61,14.54-6.92-3.48-13.51-8.37-19.61-14.54-6.6-6.68-10.39-16.11-10.39-25.87Z"/><path d="m50.72,83.02c5.87-3.24,11.5-7.57,16.75-12.87,6.05-6.12,9.52-14.79,9.52-23.77v-18.81c0-.71-.5-1.32-1.19-1.47-8.86-1.85-17.3-4.9-25.09-9.08-.44-.24-.97-.24-1.42,0-7.79,4.18-16.24,7.23-25.09,9.08-.7.15-1.19.76-1.19,1.47v18.81c0,8.98,3.47,17.64,9.52,23.77,5.24,5.31,10.88,9.64,16.75,12.87.23.12.48.19.72.19s.5-.06.72-.19Zm-16.06-14.98c-5.5-5.57-8.66-13.46-8.66-21.66v-17.6c8.44-1.87,16.5-4.81,24-8.74,7.49,3.93,15.56,6.87,24,8.74v17.6c0,8.2-3.16,16.09-8.66,21.66-4.82,4.88-9.98,8.9-15.34,11.95-5.36-3.05-10.51-7.07-15.34-11.95Z"/><path d="m56.68,61.33c.22.12.46.17.7.17.31,0,.62-.1.88-.29.46-.34.69-.9.6-1.47l-1.28-7.44,5.4-5.27c.41-.4.56-.99.38-1.54-.18-.54-.65-.94-1.21-1.02l-7.47-1.08-3.34-6.77c-.25-.51-.77-.84-1.35-.84s-1.09.32-1.35.84l-3.34,6.77-7.47,1.08c-.56.08-1.03.48-1.21,1.02-.18.54-.03,1.14.38,1.54l5.4,5.27-1.28,7.44c-.1.56.13,1.13.6,1.47.46.33,1.07.38,1.58.11l6.68-3.51,6.68,3.51Zm-12.07-4.07l.9-5.22c.08-.49-.08-.98-.43-1.33l-3.79-3.7,5.24-.76c.49-.07.91-.38,1.13-.82l2.34-4.75,2.34,4.75c.22.44.64.75,1.13.82l5.24.76-3.79,3.7c-.35.34-.52.84-.43,1.33l.9,5.22-4.69-2.46c-.22-.11-.46-.17-.7-.17s-.48.06-.7.17l-4.69,2.46Z"/></svg>