<svg xmlns="http://www.w3.org/2000/svg" xmlns:xlink="http://www.w3.org/1999/xlink" version="1.1" x="0px" y="0px" fill="#ff6600"  viewBox="0 0 510 637.5" style="enable-background:new 0 0 510 510;" xml:space="preserve"><path d="M72,164.2h19l-9.5-24.4L72,164.2z M97.1,172.4H66l0,0c-2.8,0-4.8-2.9-3.8-5.6l15.2-39V96.2l-11.7-4.6  c-3.4-1.4-3.5-6.3,0-7.6l138-53.9c0.9-0.4,2-0.4,3,0l138,53.9c3.4,1.4,3.5,6.3,0,7.6l-56.4,22V168c0,3-2.6,3.8-4.9,5h41.3  c2.3,0,4.1,1.8,4.1,4.1c0,2.5,0.3,13.8-0.1,15.4c-1,3.4-4.6,2-8.6,11.6c-3.8,9.1-3.8,21.4,0,30.5c4.3,10.2,8.8,8.3,8.8,12.7v14.3  c0,2.3-1.8,4.1-4.1,4.1H112.4c-40.8,0-62.1-49.7-32.7-79.1c8.4-8.4,20-13.6,32.7-13.6H127c-2.3-1.2-4.8-2.1-4.8-5v-54.4L85.6,99.4  v28.4l15.1,38.7C102.1,169.5,99.9,172.4,97.1,172.4L97.1,172.4z M162.7,129.5c-10.7-4.1-21.4-8.3-32.4-12.6v48.7  c25.9,13.8,53.1,21.1,80.5,19.9c24.7-1.1,47.7-8.8,69.3-19.9v-48.7l-73.4,28.7c-0.9,0.4-2,0.4-3,0L162.7,129.5z M168.7,123.1  c12,4.7,24.1,9.3,36.5,14.3L332,87.8L205.2,38.3L78.4,87.8L168.7,123.1z M265.7,181.3c-17.2,7-35.3,11.6-54.5,12.4  c-21,0.9-43.2-2.7-66.8-12.4h-32c-33.5,0-51.2,40.9-27,65.1c6.9,6.9,16.5,11.2,27,11.2h208.2v-6.1H129.3c-5.4,0-5.4-8.2,0-8.2h186  c-2.8-4.4-4.6-9.6-5.6-15H132.2c-5.4,0-5.4-8.2,0-8.2H309l0.4-7.4H132.2c-5.4,0-5.4-8.2,0-8.2h179l4.1-8.9h-56.2  c-5.4,0-5.4-8.2,0-8.2h61.5v-6.1H265.7z M104.8,188.7c5.1-1.6,7.5,6.2,2.4,7.8c-22.4,6.9-22.4,38.9,0,45.8c5.2,1.6,2.7,9.4-2.4,7.8  c-21.1-6.5-29.6-31.9-16.4-49.8C92.4,194.9,98.1,190.8,104.8,188.7L104.8,188.7z M235.1,454.3c5.4,0,5.4,8.2,0,8.2H222  c-5.4,0-5.4-8.2,0-8.2H235.1z M235.1,430.1c5.4,0,5.4,8.2,0,8.2h-80.9c-5.4,0-5.4-8.2,0-8.2H235.1z M191.3,454.3  c5.4,0,5.4,8.2,0,8.2h-37.1c-5.4,0-5.4-8.2,0-8.2H191.3z M73.3,373.1c-5.4,0-5.4-8.2,0-8.2h161.7c5.4,0,5.4,8.2,0,8.2H73.3z   M158,397.4c-5.4,0-5.4-8.2,0-8.2h77.1c5.4,0,5.4,8.2,0,8.2H158z M73.3,332.2c-5.4,0-5.4-8.2,0-8.2h26.1c5.4,0,5.4,8.2,0,8.2H73.3z   M73.3,308c-5.4,0-5.4-8.2,0-8.2h161.7c5.4,0,5.4,8.2,0,8.2H73.3z M123.5,332.2c-5.4,0-5.4-8.2,0-8.2h111.5c5.4,0,5.4,8.2,0,8.2  H123.5z M446,466.3l23.4-93.5h-46.7L446,466.3z M464.2,426.9L450,484.1c-1,4.2-6.9,4.2-8,0.1l-27.8-111.3c-2.2,0-6.3,0.1-6.3-4.1  v-282c0-4.5,4.6-4.1,6.9-4.1c0-13.7-1.5-24.5,9.2-35.2c19.8-19.8,53.3-5.4,53.3,22.1v13.1c2.3,0,6.9-0.4,6.9,4.1v282  c0,4.3-4.1,4.1-6.3,4.1L464.2,426.9z M469,82.6V69.5c0-20.3-24.7-30.9-39.3-16.3c-4.2,4.2-6.8,9.9-6.8,16.3v13.1H469z M475.9,90.8  h-59.8v273.8c20,0,39.9,0,59.8,0V90.8z M275.1,421.7h72.4c2.3,0,4.1,1.8,4.1,4.1v41c0,2.3-1.8,4.1-4.1,4.1h-72.4  c-2.3,0-4.1-1.8-4.1-4.1v-41C271,423.5,272.8,421.7,275.1,421.7L275.1,421.7z M343.4,429.9h-64.2v32.8h64.2V429.9z M275.1,291.4  h72.4c2.3,0,4.1,1.8,4.1,4.1v41c0,2.3-1.8,4.1-4.1,4.1h-72.4c-2.3,0-4.1-1.8-4.1-4.1v-41C271,293.2,272.8,291.4,275.1,291.4  L275.1,291.4z M343.4,299.6h-64.2v32.8h64.2V299.6z M275.1,356.6h72.4c2.3,0,4.1,1.8,4.1,4.1v41c0,2.3-1.8,4.1-4.1,4.1h-72.4  c-2.3,0-4.1-1.8-4.1-4.1v-41C271,358.4,272.8,356.6,275.1,356.6L275.1,356.6z M343.4,364.7h-64.2v32.8h64.2V364.7z M34.1,395.7h97  c2.3,0,4.1,1.8,4.1,4.1v97h240.7V13.2H34.1V395.7z M127,403.9H39.9L127,491V403.9z M30,5h350c2.3,0,4.1,1.8,4.1,4.1v491.8  c0,2.3-1.8,4.1-4.1,4.1H131.1c-1.8,0-2.9-1.2-2.9-1.2L27.1,402.7c-0.8-0.8-1.2-1.8-1.2-2.9V9.1C25.9,6.8,27.8,5,30,5L30,5z"/></svg>