<svg xmlns="http://www.w3.org/2000/svg" xmlns:xlink="http://www.w3.org/1999/xlink" version="1.1" x="0px" y="0px" fill="#ff6600"  viewBox="0 0 512 640" style="enable-background:new 0 0 512 512;" xml:space="preserve"><g><g><g><path d="M68,314c-2.2,0-4-1.8-4-4V198.5c0-2.2,1.8-4,4-4h37.2c2.2,0,4,1.8,4,4v91.9c0,2.2-1.8,4-4,4s-4-1.8-4-4v-87.9H72V310     C72,312.2,70.2,314,68,314z"/></g><g><path d="M243.1,460h-90.2c-2.2,0-4-1.8-4-4s1.8-4,4-4h86.2V331.1c0-2.2,1.8-4,4-4h29.1c-35.2-19.3-49.3-27.1-65-35.7     c-11.9-6.6-24.8-13.6-48.6-26.7L45.1,327.1h29.1c2.2,0,4,1.8,4,4V452h53.2c2.2,0,4,1.8,4,4s-1.8,4-4,4H74.1c-2.2,0-4-1.8-4-4     V335.1H29.5c-1.8,0-3.4-1.2-3.9-3s0.3-3.6,1.9-4.5l129.2-71c1.2-0.7,2.7-0.7,3.9,0c25.1,13.8,38.3,21,50.5,27.8     c17.6,9.6,33.1,18.2,78.6,43.2c1.6,0.9,2.4,2.7,1.9,4.5c-0.5,1.8-2,3-3.9,3h-40.7V456C247.1,458.2,245.3,460,243.1,460z"/></g><g><path d="M113.2,499.8c-0.8,0-1.6-0.2-2.3-0.7c-1.6-1.1-2.2-3.2-1.4-4.9l28.1-61.8h-26.2c-1.3,0-2.5-0.6-3.3-1.7s-0.9-2.5-0.4-3.7     l25.7-67.8c0.6-1.6,2.1-2.6,3.7-2.6h44.2c1.4,0,2.7,0.7,3.4,1.9c0.7,1.2,0.8,2.6,0.2,3.9l-15.5,31.4l36.9,5.4     c1.5,0.2,2.7,1.3,3.2,2.7c0.5,1.4,0.1,3-1,4.1L116,498.6C115.3,499.4,114.2,499.8,113.2,499.8z M117.3,424.3h26.6     c1.4,0,2.6,0.7,3.4,1.8c0.7,1.1,0.8,2.6,0.3,3.8l-21.5,47.3l71.2-71.5l-34.4-5c-1.3-0.2-2.4-1-3-2.1c-0.6-1.1-0.6-2.5,0-3.6     l15.1-30.5h-35L117.3,424.3z"/></g><g><path d="M432.4,311h-72.7c-2.2,0-4-1.8-4-4v-76.3c0-0.8,0.2-1.5,0.6-2.1l36.3-57.4c0.7-1.2,2-1.9,3.4-1.9s2.6,0.7,3.4,1.9     l36.3,57.4c0.4,0.6,0.6,1.4,0.6,2.1V307C436.4,309.2,434.7,311,432.4,311z M363.8,303h64.7v-71.1l-32.3-51.1l-32.3,51.1V303z"/></g><g><path d="M478.5,460C478.5,460,478.5,460,478.5,460H313.7c-1.3,0-2.5-0.6-3.2-1.6s-1-2.3-0.6-3.6l46.1-148.9     c0.5-1.7,2.1-2.8,3.8-2.8h72.7c1.8,0,3.3,1.1,3.8,2.8l46,148.6c0.2,0.5,0.3,1,0.3,1.6C482.5,458.2,480.7,460,478.5,460z      M319.1,452h154L429.5,311h-66.8L319.1,452z"/></g><g><path d="M491.1,257.4h-58.6c-2.2,0-4-1.8-4-4l-0.2-23.1c0-1.3,0.6-2.6,1.7-3.3c1.1-0.8,2.5-0.9,3.7-0.4l58.8,23.1     c1.8,0.7,2.8,2.6,2.5,4.5C494.6,256,493,257.4,491.1,257.4z M436.4,249.4h33.5l-33.6-13.2L436.4,249.4z M359.8,257.4h-58.6     c-1.9,0-3.6-1.4-3.9-3.3c-0.4-1.9,0.7-3.8,2.5-4.5l58.8-23.1c1.2-0.5,2.6-0.3,3.7,0.4c1.1,0.8,1.7,2,1.7,3.3l-0.2,23.1     C363.7,255.7,361.9,257.4,359.8,257.4z M322.3,249.4h33.5l0.1-13.2L322.3,249.4z"/></g><g><path d="M491.1,311h-58.6c-2.2,0-4-1.8-4-4l-0.2-23.1c0-1.3,0.6-2.6,1.7-3.3c1.1-0.8,2.5-0.9,3.7-0.4l58.8,23.1     c1.8,0.7,2.8,2.6,2.5,4.5C494.6,309.6,493,311,491.1,311z M436.4,303h33.5l-33.7-13.2L436.4,303z M359.8,311h-58.6     c-1.9,0-3.6-1.4-3.9-3.3c-0.4-1.9,0.7-3.8,2.5-4.5l58.8-23.1c1.2-0.5,2.6-0.3,3.7,0.4c1.1,0.8,1.7,2,1.7,3.3l-0.2,23.1     C363.7,309.2,361.9,311,359.8,311z M322.3,303h33.5l0.1-13.2L322.3,303z"/></g><g><path d="M478.2,269.9c-2.2,0-4-1.8-4-4v-12.5c0-2.2,1.8-4,4-4s4,1.8,4,4v12.5C482.2,268.1,480.4,269.9,478.2,269.9z M466.9,269.9     c-2.2,0-4-1.8-4-4v-12.5c0-2.2,1.8-4,4-4s4,1.8,4,4v12.5C470.9,268.1,469.1,269.9,466.9,269.9z M325.3,269.9c-2.2,0-4-1.8-4-4     v-12.5c0-2.2,1.8-4,4-4s4,1.8,4,4v12.5C329.3,268.1,327.5,269.9,325.3,269.9z M314,269.9c-2.2,0-4-1.8-4-4v-12.5c0-2.2,1.8-4,4-4     s4,1.8,4,4v12.5C318,268.1,316.3,269.9,314,269.9z"/></g><g><path d="M478.2,325.3c-2.2,0-4-1.8-4-4v-12.6c0-2.2,1.8-4,4-4s4,1.8,4,4v12.6C482.2,323.5,480.4,325.3,478.2,325.3z M466.9,325.3     c-2.2,0-4-1.8-4-4v-12.6c0-2.2,1.8-4,4-4s4,1.8,4,4v12.6C470.9,323.5,469.1,325.3,466.9,325.3z M325.3,325.3c-2.2,0-4-1.8-4-4     v-12.6c0-2.2,1.8-4,4-4s4,1.8,4,4v12.6C329.3,323.5,327.5,325.3,325.3,325.3z M314,325.3c-2.2,0-4-1.8-4-4v-12.6c0-2.2,1.8-4,4-4     s4,1.8,4,4v12.6C318,323.5,316.3,325.3,314,325.3z"/></g><g><path d="M313.7,460c-1.4,0-2.8-0.7-3.5-2.1c-1.1-1.9-0.4-4.4,1.6-5.4L447,377.3l-89.7-67.1c-1.8-1.3-2.1-3.8-0.8-5.6     c1.3-1.8,3.8-2.1,5.6-0.8l94.6,70.8c1.1,0.8,1.7,2.1,1.6,3.5s-0.9,2.6-2,3.2l-140.7,78.2C315,459.8,314.3,460,313.7,460z"/></g><g><path d="M478.5,460c-0.7,0-1.3-0.2-1.9-0.5l-140.7-78.2c-1.2-0.7-2-1.9-2-3.2c-0.1-1.4,0.5-2.7,1.6-3.5l94.6-70.8     c1.8-1.3,4.3-1,5.6,0.8c1.3,1.8,1,4.3-0.8,5.6l-89.7,67.1l135.3,75.2c1.9,1.1,2.6,3.5,1.6,5.4C481.3,459.2,479.9,460,478.5,460z"/></g><g><path d="M359.8,311c-1.3,0-2.5-0.6-3.3-1.7c-1.3-1.8-0.8-4.3,1-5.6l67.8-47l-54.1-40.4c-1.8-1.3-2.1-3.8-0.8-5.6     c1.3-1.8,3.8-2.1,5.6-0.8l58.5,43.8c1,0.8,1.6,2,1.6,3.3c0,1.3-0.7,2.5-1.7,3.2L362,310.3C361.3,310.8,360.5,311,359.8,311z"/></g><g><path d="M432.4,311c-0.8,0-1.6-0.2-2.3-0.7l-72.4-50.1c-1.1-0.7-1.7-1.9-1.7-3.2s0.6-2.5,1.6-3.3l58.5-43.8     c1.8-1.3,4.3-1,5.6,0.8c1.3,1.8,1,4.3-0.8,5.6l-54.1,40.4l67.8,47c1.8,1.3,2.3,3.8,1,5.6C435,310.4,433.7,311,432.4,311z"/></g><g><path d="M103.8,202.5H76.1c-1.5,0-2.9-0.9-3.6-2.3c-1.3-2.6-1.9-5.5-1.9-8.4c0-6.7,3.4-12.7,8.9-16.2c-0.2-1.3-0.3-2.7-0.3-4.1     c0-13.8,11.3-25.1,25.1-25.1c13.8,0,25.1,11.2,25.1,25.1c0,12.2-8.8,22.5-20.5,24.7c-0.3,1.4-0.8,2.7-1.4,4     C106.7,201.6,105.3,202.5,103.8,202.5z M78.9,194.5h22.1c0.2-0.7,0.3-1.4,0.3-2.1c0.1-2.1,1.7-3.7,3.8-3.8     c9.1-0.5,16.2-8,16.2-17.1c0-9.4-7.7-17.1-17.1-17.1c-9.4,0-17.1,7.7-17.1,17.1c0,1.7,0.2,3.4,0.7,5c0.6,2-0.4,4.1-2.3,4.9     c-4.2,1.8-7,5.9-7,10.5C78.5,192.7,78.7,193.6,78.9,194.5z"/></g><g><path d="M366.7,57.2c-2.2,0-4-1.8-4-4v-8.5c0-2.2,1.8-4,4-4s4,1.8,4,4v8.5C370.7,55.4,368.9,57.2,366.7,57.2z"/></g><g><path d="M387.9,62.8c-0.7,0-1.4-0.2-2-0.5c-1.9-1.1-2.6-3.6-1.4-5.5l4.3-7.3c1.1-1.9,3.6-2.6,5.5-1.4c1.9,1.1,2.6,3.6,1.4,5.5     l-4.3,7.3C390.6,62.1,389.3,62.8,387.9,62.8z"/></g><g><path d="M403.4,78.4c-1.4,0-2.7-0.7-3.5-2c-1.1-1.9-0.4-4.4,1.5-5.5l7.3-4.2c1.9-1.1,4.4-0.4,5.5,1.5c1.1,1.9,0.4,4.4-1.5,5.5     l-7.3,4.2C404.8,78.2,404.1,78.4,403.4,78.4z"/></g><g><path d="M417.5,99.5h-8.5c-2.2,0-4-1.8-4-4s1.8-4,4-4h8.5c2.2,0,4,1.8,4,4S419.8,99.5,417.5,99.5z"/></g><g><path d="M410.7,124.9c-0.7,0-1.4-0.2-2-0.5l-7.3-4.2c-1.9-1.1-2.6-3.6-1.5-5.5c1.1-1.9,3.5-2.6,5.5-1.5l7.3,4.2     c1.9,1.1,2.6,3.6,1.5,5.5C413.5,124.2,412.1,124.9,410.7,124.9z"/></g><g><path d="M392.1,143.5c-1.4,0-2.7-0.7-3.5-2l-4.3-7.3c-1.1-1.9-0.5-4.4,1.4-5.5c1.9-1.1,4.4-0.5,5.5,1.4l4.3,7.3     c1.1,1.9,0.5,4.4-1.4,5.5C393.5,143.4,392.8,143.5,392.1,143.5z"/></g><g><path d="M366.7,150.4c-2.2,0-4-1.8-4-4v-8.5c0-2.2,1.8-4,4-4s4,1.8,4,4v8.5C370.7,148.6,368.9,150.4,366.7,150.4z"/></g><g><path d="M341.3,143.5c-0.7,0-1.4-0.2-2-0.5c-1.9-1.1-2.6-3.6-1.4-5.5l4.3-7.3c1.1-1.9,3.6-2.6,5.5-1.4c1.9,1.1,2.6,3.6,1.4,5.5     l-4.3,7.3C344,142.8,342.7,143.5,341.3,143.5z"/></g><g><path d="M322.7,124.9c-1.4,0-2.7-0.7-3.5-2c-1.1-1.9-0.4-4.4,1.5-5.5l7.3-4.2c1.9-1.1,4.4-0.4,5.5,1.5c1.1,1.9,0.4,4.4-1.5,5.5     l-7.3,4.2C324.1,124.8,323.4,124.9,322.7,124.9z"/></g><g><path d="M324.4,99.5h-8.5c-2.2,0-4-1.8-4-4s1.8-4,4-4h8.5c2.2,0,4,1.8,4,4S326.6,99.5,324.4,99.5z"/></g><g><path d="M330,78.4c-0.7,0-1.4-0.2-2-0.5l-7.3-4.2c-1.9-1.1-2.6-3.5-1.5-5.5c1.1-1.9,3.5-2.6,5.5-1.5l7.3,4.2     c1.9,1.1,2.6,3.5,1.5,5.5C332.8,77.6,331.4,78.4,330,78.4z"/></g><g><path d="M345.6,62.8c-1.4,0-2.7-0.7-3.5-2l-4.3-7.3c-1.1-1.9-0.5-4.4,1.4-5.5c1.9-1.1,4.4-0.5,5.5,1.4l4.3,7.3     c1.1,1.9,0.5,4.4-1.4,5.5C346.9,62.7,346.2,62.8,345.6,62.8z"/></g><g><path d="M366.7,131.2c-19.7,0-35.7-16-35.7-35.7s16-35.7,35.7-35.7c19.7,0,35.6,16,35.6,35.7S386.4,131.2,366.7,131.2z      M366.7,67.8c-15.3,0-27.7,12.4-27.7,27.7s12.4,27.7,27.7,27.7c15.2,0,27.6-12.4,27.6-27.7S382,67.8,366.7,67.8z"/></g><g><path d="M206.9,257.2c-2.2,0-4-1.8-4-4v-43.7c0-2.2,1.8-4,4-4h143.8c2.2,0,4,1.8,4,4s-1.8,4-4,4H210.9v39.7     C210.9,255.4,209.1,257.2,206.9,257.2z"/></g><g><path d="M206.9,258.1c-1.2,0-2.3-0.5-3.1-1.4l-15.1-18.1c-1.4-1.7-1.2-4.2,0.5-5.6c1.7-1.4,4.2-1.2,5.6,0.5l12,14.4l12-14.4     c1.4-1.7,3.9-1.9,5.6-0.5c1.7,1.4,1.9,3.9,0.5,5.6l-15,18.1C209.2,257.6,208.1,258.1,206.9,258.1L206.9,258.1L206.9,258.1z"/></g><g><path d="M392.1,487H183.9c-2.2,0-4-1.8-4-4V456c0-2.2,1.8-4,4-4s4,1.8,4,4V479h200.3V456c0-2.2,1.8-4,4-4s4,1.8,4,4V483     C396.1,485.2,394.4,487,392.1,487z"/></g><g><path d="M76,80.4C76,80.4,76,80.4,76,80.4c-7.9,0-31.2,0-40,0c-10.1,0-18.3-11.1-18.3-20.2c0-7.6,4-13.8,10.8-16.7     c2-4,5.1-7.5,9.1-9.7C38.6,22,48.3,12.9,60.2,12.9c9,0,17.2,5.3,20.9,13.6c0.9,2,0,4.4-2,5.3c-2,0.9-4.4,0-5.3-2     c-2.4-5.4-7.7-8.9-13.6-8.9c-8.2,0-14.8,6.7-14.8,14.8v0.4c0,1.6-0.9,3-2.4,3.7c-3.6,1.6-6.4,4.5-7.8,8.1c-0.4,1.1-1.3,2-2.5,2.3     c-3.2,1.1-7.1,3.7-7.1,9.8c0,5.3,5,12.2,10.3,12.2c8.8,0,32.2,0,40.1,0c2.2,0,4,1.8,4,4C80,78.6,78.2,80.4,76,80.4z"/></g><g><path d="M129.6,80.4c-10.1,0-19.6,0-29.1-0.1c-9.7,0-19.5-0.1-30.1-0.1c-10.1,0-18.3-11.1-18.3-20.2c0-7.6,4-13.8,10.8-16.7     c2-4,5.1-7.5,9.1-9.7C73,22,82.8,12.9,94.6,12.9c11.3,0,20.8,8.4,22.5,19.3c5.6,1.8,10,6.1,11.8,11.6c0.2,0,0.4,0,0.6,0     c10.1,0,18.3,8.2,18.3,18.3C147.9,72.2,139.7,80.4,129.6,80.4z M94.6,20.9c-8.2,0-14.8,6.7-14.8,14.8v0.4c0,1.6-0.9,3-2.4,3.7     c-3.6,1.6-6.4,4.5-7.8,8.1c-0.4,1.1-1.3,2-2.5,2.3c-3.2,1.1-7.1,3.7-7.1,9.8c0,5.3,5,12.2,10.3,12.2c10.6,0,20.4,0,30.1,0.1     c9.6,0,19.1,0.1,29.1,0.1c5.7,0,10.3-4.6,10.3-10.3c0-5.7-4.6-10.3-10.3-10.3c-0.9,0-1.8,0.1-2.7,0.4c-1.1,0.3-2.3,0.1-3.3-0.6     c-1-0.7-1.6-1.7-1.7-2.9c-0.4-4.8-4.2-8.7-8.9-9.3c-2-0.3-3.5-1.9-3.5-3.9C109.3,27.5,102.7,20.9,94.6,20.9z"/></g></g></g></svg>