<svg xmlns="http://www.w3.org/2000/svg" xmlns:xlink="http://www.w3.org/1999/xlink" version="1.1" x="0px" y="0px"  fill="#ff6600" viewBox="0 0 64 80" enable-background="new 0 0 64 64" xml:space="preserve"><g><g><path d="M56,6H8c-3.309,0-6,2.691-6,6v40c0,3.309,2.691,6,6,6h48c3.309,0,6-2.691,6-6V12C62,8.691,59.309,6,56,6z M58,52    c0,1.103-0.897,2-2,2H8c-1.103,0-2-0.897-2-2V12c0-1.103,0.897-2,2-2h48c1.103,0,2,0.897,2,2V52z"/><rect x="9" y="14" width="6" height="4"/><rect x="9" y="22" width="6" height="4"/><rect x="9" y="30" width="6" height="4"/><rect x="9" y="38" width="6" height="4"/><rect x="9" y="46" width="6" height="4"/><rect x="49" y="14" width="6" height="4"/><rect x="49" y="22" width="6" height="4"/><rect x="49" y="30" width="6" height="4"/><rect x="49" y="38" width="6" height="4"/><rect x="49" y="46" width="6" height="4"/><path d="M40.895,30.211l-16-8c-0.621-0.31-1.357-0.277-1.946,0.088C22.359,22.663,22,23.307,22,24v16    c0,0.693,0.359,1.337,0.949,1.701C23.27,41.9,23.634,42,24,42c0.306,0,0.612-0.07,0.895-0.211l16-8C41.572,33.45,42,32.757,42,32    S41.572,30.55,40.895,30.211z M26,36.764v-9.528L35.528,32L26,36.764z"/></g></g></svg>