<svg xmlns="http://www.w3.org/2000/svg" fill="#ff6600"  viewBox="0 0 64 80" x="0px" y="0px"><g><path d="M32,29c1.221,0,2,.592,2,1a1,1,0,0,0,2,0c0-1.421-1.259-2.571-3-2.9V26a1,1,0,0,0-2,0v1.1c-1.741.327-3,1.477-3,2.9,0,1.682,1.757,3,4,3,1.221,0,2,.592,2,1s-.779,1-2,1-2-.592-2-1a1,1,0,0,0-2,0c0,1.421,1.259,2.571,3,2.9V38a1,1,0,0,0,2,0V36.9c1.741-.327,3-1.477,3-2.9,0-1.682-1.757-3-4-3-1.221,0-2-.592-2-1S30.779,29,32,29Z"/><path d="M38.18,22.34a2.483,2.483,0,0,0-.67-4.12l2.38-4.77A1,1,0,0,0,39,12H36a.984.984,0,0,0-.6.2L33,14V10h1a5,5,0,0,0,5-5V3a1,1,0,0,0-1-1H36a4.994,4.994,0,0,0-4,2.03A4.994,4.994,0,0,0,28,2H26a1,1,0,0,0-1,1V5a5,5,0,0,0,5,5h1v4l-2.4-1.8A.984.984,0,0,0,28,12H25a1,1,0,0,0-.89,1.45l2.38,4.77a2.483,2.483,0,0,0-.67,4.12C22.45,25.25,19,29.17,19,33c0,6.45,4.62,10,13,10s13-3.55,13-10C45,29.17,41.55,25.25,38.18,22.34ZM33,7a3.009,3.009,0,0,1,3-3h1V5a3.009,3.009,0,0,1-3,3H33ZM30,8a3.009,3.009,0,0,1-3-3V4h1a3.009,3.009,0,0,1,3,3V8Zm-2.33,6,3.73,2.8a.99.99,0,0,0,1.2,0L36.33,14h1.05l-2,4H28.62l-2-4ZM37,20.5a.5.5,0,0,1-.5.5h-9a.5.5,0,0,1,0-1h9A.5.5,0,0,1,37,20.5ZM32,41c-5.02,0-11-1.39-11-8,0-2.72,2.54-6.26,7.16-10h7.68C40.46,26.74,43,30.28,43,33,43,39.61,37.02,41,32,41Z"/><path d="M59.73,27.36a4.578,4.578,0,0,0,.03-.53,4.02,4.02,0,0,0-3.18-3.91,4.079,4.079,0,0,0-4.7,2.97l-4.4,12.66a1.632,1.632,0,0,0-.19.09l-8.84,5.18A9.017,9.017,0,0,0,34,51.58V61a1,1,0,0,0,2,0V51.58a7.052,7.052,0,0,1,3.46-6.04l8.83-5.17a2,2,0,0,1,2.74.73,2.06,2.06,0,0,1,.2,1.52,2,2,0,0,1-.94,1.21l-5.73,3.31a1,1,0,0,0,1,1.73l5.73-3.31a3.948,3.948,0,0,0,1.87-2.43,4.007,4.007,0,0,0-.4-3.03l-.06-.09,3.09-9.53a2.113,2.113,0,0,1,2.38-1.6,2,2,0,0,1,1.59,1.95,1.722,1.722,0,0,1-.07.52L55.34,47.59a2.981,2.981,0,0,1-.9,1.46l-6.77,6.01A5.056,5.056,0,0,0,46,58.8V61a1,1,0,0,0,2,0V58.8a3.039,3.039,0,0,1,1-2.24l6.76-6.01a4.931,4.931,0,0,0,1.52-2.45l4.34-16.23a3.955,3.955,0,0,0,.14-1.04A4.019,4.019,0,0,0,59.73,27.36Zm-1.97-.52a4.117,4.117,0,0,0-3.89,3.07l-2.79,8.61a3.954,3.954,0,0,0-1.34-.38l4.05-11.66a2.113,2.113,0,0,1,2.38-1.6,2,2,0,0,1,1.59,1.95Z"/><path d="M25.552,43.819l-8.846-5.185c-.061-.034-.126-.053-.188-.085L12.146,25.96a4.1,4.1,0,0,0-4.731-3.039A4.013,4.013,0,0,0,4.24,26.83a4.264,4.264,0,0,0,.034.534,3.993,3.993,0,0,0-1.9,4.5L6.723,48.1a4.937,4.937,0,0,0,1.512,2.452l6.759,6.009A3.014,3.014,0,0,1,16,58.8V61a1,1,0,0,0,2,0V58.8a5.024,5.024,0,0,0-1.675-3.738L9.561,49.05a2.951,2.951,0,0,1-.9-1.469L4.306,31.35a1.97,1.97,0,0,1-.066-.52,2,2,0,0,1,1.583-1.951,2.147,2.147,0,0,1,2.406,1.65L11.3,40.011c-.019.031-.044.056-.062.087a4,4,0,0,0,1.464,5.464l5.731,3.309a1,1,0,1,0,1-1.732l-5.731-3.308A2,2,0,0,1,15.7,40.363l8.84,5.182A7.024,7.024,0,0,1,28,51.583V61a1,1,0,0,0,2,0V51.583A9.036,9.036,0,0,0,25.552,43.819ZM13.67,38.234a4.074,4.074,0,0,0-.748.283L10.146,29.96a4.152,4.152,0,0,0-3.9-3.114l0-.016a2,2,0,0,1,1.583-1.951,2.153,2.153,0,0,1,2.412,1.669l4.023,11.589A3.983,3.983,0,0,0,13.67,38.234Z"/></g></svg>