<svg xmlns="http://www.w3.org/2000/svg" xmlns:xlink="http://www.w3.org/1999/xlink" xml:space="preserve" style="shape-rendering:geometricPrecision;text-rendering:geometricPrecision;image-rendering:optimizeQuality;" fill="#ff6600" viewBox="0 0 173.397 216.74624999999997" x="0px" y="0px" fill-rule="evenodd" clip-rule="evenodd"><defs><style type="text/css">
   
    .fil1 {fill:none}
    .fil0 {fill:#FF6600}
   
  </style></defs><g><g><path class="fil0" d="M67.2621 81.8128c-13.9912,0 -22.753,4.4546 -27.9526,8.7594 -5.2194,4.3203 -5.5606,8.2825 -5.9218,12.4772 -0.4284,4.9764 -0.8717,10.1218 -9.5743,14.7742 -4.8143,2.577 -10.2825,7.8388 -10.9099,13.2978 -0.3445,2.9977 0.8309,5.7041 3.494,8.0416 10.5038,9.2207 22.874,12.2192 34.5121,12.2199 16.527,0.0007 31.5822,-6.0426 37.7595,-8.8956l0 -0.0003c17.6987,-8.1728 21.4436,-7.4518 27.6478,-6.2588 3.5809,0.6886 8.0378,1.5453 16.8872,0.9016 12.4502,-0.9108 19.0571,-4.9777 22.4076,-8.2294 3.5855,-3.4804 4.3044,-6.7969 4.3111,-6.8298 1.3959,-6.2277 0.4339,-11.3999 -2.8523,-15.4032 -8.2804,-10.0881 -28.6555,-10.3911 -34.7065,-10.2441 -10.0061,0.2401 -17.4386,-3.4484 -24.6225,-7.0208 -5.1667,-2.5695 -10.5093,-5.2254 -16.7477,-6.3185 -5.0565,-0.8865 -9.6204,-1.2709 -13.7317,-1.2712zm-16.4315 72.3047c-14.2546,0 -26.4085,-4.3368 -36.2046,-12.9366 -3.3168,-2.9117 -4.835,-6.4961 -4.3903,-10.3662 0.7415,-6.4544 6.7175,-12.3642 12.3109,-15.3587 7.419,-3.9669 7.7649,-7.9843 8.1657,-12.637 0.3743,-4.3491 0.7989,-9.2777 6.8847,-14.3154 7.1632,-5.9308 20.5874,-12.1429 43.8601,-8.0644 6.6221,1.1596 12.1419,3.9047 17.4799,6.559 7.2081,3.5837 14.0091,6.9651 23.3617,6.7403 8.1458,-0.1976 28.0429,0.4985 36.8479,11.225 3.8349,4.6719 4.981,10.6102 3.4061,17.6501 -0.1801,0.8836 -3.5268,15.3214 -29.1532,17.1942 -9.2032,0.6707 -13.8531,-0.2238 -17.5896,-0.9427 -5.8685,-1.1284 -9.1008,-1.7504 -26.015,6.0605l0.0001 -0.0004c-5.9356,2.741 -17.9666,7.5364 -31.8508,8.8491 -2.426,0.2284 -4.7978,0.3436 -7.1136,0.3432z"/><path class="fil0" d="M67.767 100.786c-4.9516,0 -9.6921,1.0139 -12.9541,4.2651 -5.8947,5.8745 -13.3313,17.5502 -11.3578,23.2928 0.7157,2.0821 2.6489,3.2883 5.9103,3.6869 11.8629,1.4502 23.955,-2.852 30.1064,-5.5459 3.8722,-1.696 7.8699,-2.7328 11.7359,-3.7357 5.8978,-1.5305 11.4684,-2.975 16.3867,-6.566 1.5372,-1.1232 1.3679,-1.8501 1.3123,-2.0893 -0.1818,-0.7821 -1.6948,-3.6432 -13.5279,-7.6473 -6.9307,-2.3452 -14.4458,-4.0834 -17.5547,-4.6281l0 -0.0003c-3.1802,-0.5579 -6.6681,-1.0319 -10.0571,-1.0322zm-13.4985 34.2197c-1.7341,0 -3.482,-0.0958 -5.229,-0.3094 -4.3226,-0.5285 -7.056,-2.3721 -8.1239,-5.4798 -2.7285,-7.9388 6.9074,-20.9904 12.0017,-26.0673 6.3686,-6.3481 16.9036,-5.4596 25.3705,-3.976l0 -0.0001c3.1873,0.5586 10.8791,2.3366 17.9515,4.73 9.5344,3.2256 14.5332,6.3602 15.283,9.5824 0.2863,1.2299 0.1119,3.0729 -2.3446,4.8663 -5.3317,3.8928 -11.4138,5.4709 -17.2955,6.9969 -3.7642,0.976 -7.6567,1.9861 -11.3331,3.5963 -5.5083,2.4117 -15.6088,6.0611 -26.2806,6.0607z"/><path class="fil0" d="M29.7081 66.2997l40.2363 0 -8.4732 -11.3238c-0.3042,-0.4068 -0.3531,-0.9505 -0.1255,-1.4051 0.2277,-0.4548 0.6924,-0.7416 1.2008,-0.7416l4.0054 -0.0003 -8.6136 -11.315c-0.3095,-0.406 -0.3616,-0.952 -0.135,-1.4091 0.2265,-0.4579 0.6926,-0.7465 1.2031,-0.7465l3.0122 -0.0002 -12.1923 -16.4785 -12.1921 16.4785 3.012 0c0.5103,0 0.9764,0.2895 1.2031,0.7467 0.2266,0.457 0.1743,1.0034 -0.1348,1.4095l-8.6137 11.3146 4.0054 0c0.5083,0 0.9729,0.2873 1.2006,0.7419 0.2276,0.454 0.1789,0.9986 -0.1256,1.4057l-8.4731 11.3232zm42.9183 2.6851l-45.6 0c-0.5083,0 -0.973,-0.2867 -1.2007,-0.7409 -0.2275,-0.455 -0.1789,-0.9987 0.1255,-1.4056l8.4731 -11.3243 -4.0331 0c-0.5102,0 -0.9764,-0.2886 -1.2032,-0.746 -0.2265,-0.4577 -0.1742,-1.0035 0.1349,-1.4094l8.6137 -11.3153 -2.966 0c-0.5071,0 -0.9709,-0.2851 -1.1992,-0.7379 -0.228,-0.4533 -0.1817,-0.9954 0.1198,-1.4029l14.8557 -20.0794c0.2532,-0.3422 0.6538,-0.5436 1.0794,-0.5436 0.4255,0 0.8263,0.202 1.0794,0.5442l14.8557 20.0781c0.3017,0.4075 0.3479,0.9507 0.1199,1.4036 -0.2284,0.4523 -0.6921,0.7382 -1.1994,0.7382l-2.9659 -0.0003 8.6137 11.3151c0.3092,0.4059 0.3612,0.9523 0.1346,1.4096 -0.2266,0.4573 -0.6926,0.7466 -1.2028,0.7466l-4.0334 -0.0006 8.4731 11.3238c0.3046,0.4068 0.3532,0.9515 0.1255,1.4061 -0.2276,0.4537 -0.6923,0.7413 -1.2003,0.7409z"/><path class="fil0" d="M53.7503 83.3988c-0.7413,0 -1.3427,-0.6004 -1.3427,-1.342l0 -14.415c0,-0.7411 0.6014,-1.3416 1.3426,-1.3416 0.7417,-0.0005 1.3428,0.601 1.3428,1.3422l0 14.4143c0,0.7411 -0.6011,1.3427 -1.3427,1.3421zm-7.848 2.7828c-0.7416,0 -1.3427,-0.6009 -1.3427,-1.3422l0 -17.1976c0,-0.7411 0.6011,-1.3416 1.3427,-1.3416 0.7413,-0.0005 1.3428,0.601 1.3428,1.3422l0 17.197c0,0.7411 -0.6015,1.3424 -1.3428,1.3422z"/><path class="fil0" d="M118.976 81.2786l40.2366 0 -8.4731 -11.3238c-0.3046,-0.4066 -0.3533,-0.9504 -0.1256,-1.405 0.2277,-0.4548 0.6923,-0.7416 1.2004,-0.7416l4.0052 -0.0004 -8.6134 -11.3142c-0.3095,-0.4068 -0.3617,-0.9524 -0.1351,-1.4094 0.2267,-0.4576 0.6927,-0.7465 1.2033,-0.7465l3.0121 -0.0006 -12.1923 -16.4785 -12.1922 16.4785 3.0121 0c0.5105,0 0.9765,0.2897 1.2031,0.7471 0.2266,0.4566 0.1742,1.0032 -0.135,1.4095l-8.6132 11.3141 4.005 0c0.5084,0 0.9732,0.2875 1.2007,0.742 0.2277,0.4539 0.1791,0.9988 -0.1254,1.4056l-8.4732 11.3232zm42.9181 2.6859l-45.5996 0c-0.5085,0 -0.9732,-0.287 -1.2008,-0.7416 -0.2277,-0.4542 -0.1787,-0.9982 0.1255,-1.4056l8.4732 -11.3243 -4.0335 0c-0.5101,0 -0.9762,-0.2886 -1.2032,-0.7459 -0.2262,-0.457 -0.1742,-1.0033 0.135,-1.4095l8.6137 -11.3145 -2.9659 0c-0.5074,0 -0.971,-0.2858 -1.199,-0.7385 -0.2283,-0.4527 -0.1822,-0.9952 0.1195,-1.4029l14.8557 -20.0788c0.2532,-0.3423 0.6538,-0.5441 1.0794,-0.5441 0.4256,-0.0004 0.8262,0.2018 1.0795,0.5442l14.8559 20.0785c0.3014,0.4075 0.3475,0.9506 0.1195,1.4031 -0.2282,0.452 -0.6919,0.7385 -1.199,0.7385l-2.9661 0 8.6137 11.3142c0.3091,0.4059 0.3614,0.9528 0.1349,1.4098 -0.2265,0.4571 -0.6931,0.7464 -1.2032,0.7464l-4.0334 -0.0005 8.4732 11.3245c0.3045,0.4068 0.353,0.9512 0.1254,1.4054 -0.2275,0.4545 -0.6923,0.7416 -1.2004,0.7416z"/><path class="fil0" d="M135.17 97.0782c-0.7416,0 -1.3428,-0.6005 -1.3428,-1.3421l0.0001 -13.1145c0,-0.7411 0.601,-1.3421 1.3427,-1.3421 0.7413,-0.0001 1.3426,0.6011 1.3426,1.3427l0 13.1137c0,0.7411 -0.6014,1.3429 -1.3426,1.3423zm7.8483 1.5293c-0.7417,0 -1.3428,-0.6006 -1.3428,-1.3419l0 -14.644c0,-0.7411 0.6011,-1.3421 1.3427,-1.3421 0.7414,-0.0001 1.3424,0.6011 1.3424,1.3427l0 14.6432c0,0.7411 -0.6011,1.3425 -1.3423,1.3421z"/><path class="fil0" d="M82.3691 35.0051c-3.2022,0 -5.8079,2.6056 -5.8079,5.8079 0,3.2019 2.6057,5.8078 5.8079,5.8078l33.4642 -0.0002c3.2023,0 5.8076,-2.6053 5.8076,-5.8076 0,-1.7027 -0.744,-3.3134 -2.041,-4.4203 -0.4748,-0.405 -0.6081,-1.084 -0.321,-1.6384 0.4287,-0.8287 0.6458,-1.725 0.6458,-2.6648 0.0001,-3.203 -2.6053,-5.8078 -5.8075,-5.8078 -1.0242,-0.0001 -2.031,0.2701 -2.9107,0.7812 -0.356,0.2068 -0.7874,0.2386 -1.1696,0.0869 -0.3825,-0.1523 -0.6745,-0.4709 -0.7917,-0.8655 -0.7262,-2.4432 -3.0159,-4.1498 -5.5678,-4.1498 -2.836,-0.0007 -5.303,2.1091 -5.738,4.906 -0.0741,0.4755 -0.3972,0.8752 -0.8465,1.0475 -0.4497,0.1715 -0.9571,0.0905 -1.3295,-0.2138 -1.0468,-0.8555 -2.3158,-1.3066 -3.6697,-1.3066 -3.2022,-0.0005 -5.8076,2.6054 -5.8076,5.8079 0,0.5124 0.0671,1.0227 0.2,1.5164 0.1339,0.4963 -0.0284,1.0266 -0.4172,1.3638 -0.3891,0.337 -0.9368,0.4222 -1.4095,0.2187 -0.7244,-0.3113 -1.4952,-0.4691 -2.2903,-0.4693zm33.4642 14.3007l-33.4642 0c-4.683,0 -8.493,-3.8099 -8.493,-8.4928 0,-4.6837 3.8099,-8.4932 8.493,-8.4932 0.4154,0 0.8263,0.0297 1.2316,0.0884 0,-0.0112 0,-0.0217 0,-0.0327 0,-4.6833 3.8099,-8.4933 8.493,-8.4933 1.2906,-0.0003 2.5616,0.297 3.711,0.8546 1.2683,-3.1529 4.3279,-5.2878 7.8727,-5.2878 3.2125,-0.0005 6.1409,1.8502 7.5711,4.6455 0.9157,-0.3283 1.8871,-0.4982 2.8687,-0.4982 4.683,0 8.493,3.81 8.493,8.4932 0,1.0124 -0.1829,2.0211 -0.5339,2.9657 1.4406,1.5603 2.25,3.6094 2.25,5.7578 0,4.6825 -3.81,8.4929 -8.493,8.4928z"/></g></g><rect class="fil1" width="173.397" height="173.397"/></svg>