<svg xmlns="http://www.w3.org/2000/svg" xmlns:xlink="http://www.w3.org/1999/xlink" version="1.1" x="0px" y="0px" fill="#ff6600"  viewBox="0 0 95 118.75" enable-background="new 0 0 95 95" xml:space="preserve"><g><path d="M33.099,63.491h5.281v5.281c0,4.079,3.319,7.397,7.397,7.397h3.746c4.078,0,7.396-3.318,7.396-7.397v-5.281h5.281   c4.08,0,7.399-3.318,7.399-7.398v-3.745c0-4.079-3.319-7.397-7.399-7.397H56.92v-5.283c0-4.079-3.318-7.397-7.396-7.397h-3.746   c-4.078,0-7.397,3.318-7.397,7.397v5.283h-5.281c-4.079,0-7.399,3.318-7.399,7.397v3.745C25.699,60.172,29.02,63.491,33.099,63.491   z M28.514,52.347c0-2.528,2.057-4.584,4.585-4.584h8.095v-8.097c0-2.527,2.057-4.584,4.584-4.584h3.746   c2.527,0,4.583,2.057,4.583,4.584v8.097h8.095c2.528,0,4.586,2.056,4.586,4.584v3.745c0,2.528-2.058,4.584-4.586,4.584h-8.095   v8.096c0,2.527-2.056,4.584-4.583,4.584h-3.746c-2.527,0-4.584-2.057-4.584-4.584v-8.096h-8.095c-2.528,0-4.585-2.056-4.585-4.584   V52.347z"/><path d="M10.24,88.263h74.52c2.707,0,4.91-2.202,4.91-4.91V25.419c0-2.708-2.203-4.912-4.91-4.912H70.463v-0.618   c0-7.252-5.9-13.152-13.152-13.152H37.689c-7.252,0-13.152,5.9-13.152,13.152v0.618H10.24c-2.707,0-4.91,2.204-4.91,4.912v57.934   C5.33,86.061,7.533,88.263,10.24,88.263z M37.689,9.55h19.621c5.224,0,9.555,3.895,10.244,8.933h-4.162   c-0.639-2.768-3.123-4.836-6.082-4.836H37.689c-2.959,0-5.443,2.068-6.082,4.836h-4.162C28.135,13.445,32.466,9.55,37.689,9.55z    M60.74,19.889v0.618H34.26v-0.618c0-1.891,1.539-3.429,3.43-3.429h19.621C59.201,16.46,60.74,17.999,60.74,19.889z M8.144,25.419   c0-1.156,0.94-2.099,2.097-2.099h74.52c1.156,0,2.097,0.942,2.097,2.099v57.934c0,1.156-0.94,2.097-2.097,2.097H10.24   c-1.156,0-2.097-0.94-2.097-2.097V25.419z"/></g></svg>