<svg xmlns="http://www.w3.org/2000/svg" xmlns:xlink="http://www.w3.org/1999/xlink" version="1.1" x="0px" y="0px" fill="#ff6600" viewBox="0 0 66 82.5" enable-background="new 0 0 66 66" xml:space="preserve"><g><path d="M61.1,1H4.9C2.8,1,1,2.8,1,4.9v46.9c0,2.2,1.8,3.9,3.9,3.9h19V63h-4c-0.6,0-1,0.4-1,1s0.4,1,1,1   c5.7,0,20.5,0,26.3,0c0.6,0,1-0.4,1-1s-0.4-1-1-1h-4v-7.3h19c2.2,0,3.9-1.8,3.9-3.9V4.9C65,2.8,63.2,1,61.1,1z M25.9,63v-7.3h14.2   V63H25.9z M63,51.8c0,1.1-0.9,1.9-1.9,1.9H4.9c-1.1,0-1.9-0.9-1.9-1.9V4.9C3,3.9,3.9,3,4.9,3h56.2C62.1,3,63,3.9,63,4.9V51.8z"/><path d="M59.2,5.8H6.8c-0.6,0-1,0.4-1,1v39.7c0,0.5,0.4,1,1,1c-1.4,0,52,0,52.3,0c0.6,0,1-0.4,1-1V6.8   C60.2,6.3,59.7,5.8,59.2,5.8z M13.3,38.9l-1.7-2.8l2-2l2.8,1.7c0.3,0.2,0.7,0.2,1.1,0c1.1-0.7,2.3-1.2,3.6-1.5   c0.4-0.1,0.6-0.4,0.7-0.7l0.8-3.2h2.8l0.8,3.2c0.1,0.4,0.4,0.6,0.7,0.7c1.3,0.3,2.5,0.8,3.6,1.5c0.3,0.2,0.7,0.2,1.1,0l2.8-1.7l2,2   l-1.7,2.8c-0.2,0.3-0.2,0.7,0,1c0.7,1.1,1.2,2.4,1.5,3.7c0.1,0.4,0.4,0.7,0.7,0.7l3.2,0.8v0.4h-9.7c-0.5-3.1-3.2-5.5-6.4-5.5   c-3.3,0-5.9,2.4-6.4,5.5H7.8v-0.4l3.2-0.8c0.4-0.1,0.7-0.4,0.7-0.7c0.3-1.3,0.8-2.5,1.5-3.7C13.5,39.7,13.5,39.3,13.3,38.9z    M19.6,45.6c0.5-2,2.3-3.5,4.4-3.5c2.1,0,3.9,1.5,4.4,3.5H19.6z M58.2,45.6h-16v-1.2c0-0.5-0.3-0.9-0.8-1L38,42.6   c-0.3-1.1-0.7-2.1-1.3-3.1l1.8-3c0.2-0.4,0.2-0.9-0.1-1.2l-3.1-3.1c-0.3-0.3-0.8-0.4-1.2-0.1l-3,1.8c-1-0.5-2-1-3.1-1.3l-0.8-3.4   c-0.1-0.4-0.5-0.8-1-0.8h-4.4c-0.5,0-0.9,0.3-1,0.8L20,32.6c-1.1,0.3-2.1,0.7-3.1,1.3L13.9,32c-0.4-0.2-0.9-0.2-1.2,0.1l-3.1,3.1   c-0.3,0.3-0.4,0.8-0.1,1.2l1.8,2.9c-0.6,1-1,2-1.3,3.1l-2.1,0.5V7.8h50.3V45.6z"/><path d="M44.6,35.6c0.2,0.1,0.4,0.1,0.6,0c5.9-1.9,10.1-8,10.1-14.9v-6.3c0-0.4-0.2-0.7-0.5-0.9   c-6.5-3.8-13.1-3.8-19.8,0c-0.3,0.2-0.5,0.5-0.5,0.9v6.3C34.5,27.6,38.7,33.7,44.6,35.6z M36.5,15c5.7-3.1,11.2-3.1,16.8,0v5.7   c0,5.9-3.4,11.1-8.4,12.9c-5-1.7-8.4-7-8.4-12.9V15z"/><path d="M43.4,27.5L43.4,27.5c0.3,0,0.5-0.1,0.7-0.3l6.6-6.6c0.4-0.4,0.4-1,0-1.4c-0.4-0.4-1-0.4-1.4,0l-5.9,5.9   l-2.7-2.7c-0.4-0.4-1-0.4-1.4,0s-0.4,1,0,1.4l3.5,3.5C42.8,27.4,43.1,27.5,43.4,27.5z"/><path d="M12.7,16.6h17.1c0.6,0,1-0.4,1-1s-0.4-1-1-1H12.7c-0.6,0-1,0.4-1,1S12.1,16.6,12.7,16.6z"/><path d="M12.7,22.4h17.1c0.6,0,1-0.4,1-1s-0.4-1-1-1H12.7c-0.6,0-1,0.4-1,1S12.1,22.4,12.7,22.4z"/></g></svg>