<svg xmlns="http://www.w3.org/2000/svg" xmlns:xlink="http://www.w3.org/1999/xlink" version="1.1" x="0px" y="0px" fill='#ff6600' viewBox="0 0 140 175" style="enable-background:new 0 0 140 140;" xml:space="preserve"><path d="M120.0898438,45.8164062c-1.1767578-1.3564453-2.8798828-2.1347656-4.671875-2.1347656h-25.640625V29.5175781  c0-3.6376953-2.9648438-6.5976562-6.6083984-6.5976562H11.5976562C7.9599609,22.9199219,5,25.8798828,5,29.5175781v67.8720703  c0,3.6376953,2.9599609,6.5976562,6.5976562,6.5976562h11.4958496c0.5151367,7.3041992,6.6063232,13.0927734,14.0393066,13.0927734  s13.5251465-5.7885742,14.0402832-13.0927734h31.9958496h14.1784668  c0.5151367,7.3041992,6.6063232,13.0927734,14.0393066,13.0927734s13.5241699-5.7885742,14.0393066-13.0927734h5.0915527  c2.4716797,0,4.4824219-2.0107422,4.4824219-4.4824219V65.4443359c0-1.5214844-0.5488281-2.9941406-1.5449219-4.1464844  L120.0898438,45.8164062z M7,29.5175781c0-2.5351562,2.0625-4.5976562,4.5976562-4.5976562h34.7910156v27.2265625H7V29.5175781z   M7,54.1464844h39.3886719v27.0908203H7V54.1464844z M37.1328125,115.0800781  c-6.6660156,0-12.0898438-5.4238281-12.0898438-12.0898438c0-6.6669922,5.4238281-12.0908203,12.0898438-12.0908203  c6.6669922,0,12.0908203,5.4238281,12.0908203,12.0908203C49.2236328,109.65625,43.7998047,115.0800781,37.1328125,115.0800781z   M87.7773438,97.3896484c0,2.5351562-2.0673828,4.5976562-4.6083984,4.5976562H51.1728516  c-0.5180664-7.3012695-6.6091309-13.0878906-14.0400391-13.0878906S23.6115723,94.6860352,23.09375,101.9873047H11.5976562  C9.0625,101.9873047,7,99.9248047,7,97.3896484V83.2373047h80.7773438V97.3896484z M87.7773438,81.2373047H48.3886719V54.1464844  h39.3886719V81.2373047z M87.7773438,52.1464844H48.3886719V24.9199219h34.7802734  c2.5410156,0,4.6083984,2.0625,4.6083984,4.5976562V52.1464844z M111.3867188,115.0800781  c-6.6616211,0-12.0820312-5.4169922-12.0891113-12.0766602c0-0.0058594,0.0031738-0.010498,0.0031738-0.0161133  c0-0.0053711-0.0029297-0.0097656-0.0029297-0.0148926c0.0097656-6.6586914,5.4289551-12.072998,12.0888672-12.072998  c6.6639404,0,12.0861816,5.4204102,12.0895996,12.0844727c0,0.0012207-0.0007324,0.0021973-0.0007324,0.003418  c0,0.0014648,0.0009766,0.0029297,0.0009766,0.0043945C123.4755859,109.6572266,118.0522461,115.0800781,111.3867188,115.0800781z   M133,99.5048828c0,1.3691406-1.1132812,2.4824219-2.4824219,2.4824219h-5.0917969  c-0.5178223-7.3012695-6.6081543-13.0878906-14.0390625-13.0878906s-13.5212402,5.7866211-14.0390625,13.0878906h-9.4487305  c1.1601562-1.1894531,1.878418-2.8105469,1.878418-4.5976562V45.6816406h25.640625  c1.2119141,0,2.3642578,0.5263672,3.1591797,1.4433594l4.3349609,5.0214844h-19.7978516  c-1.7539062,0-3.1806641,1.4267578-3.1806641,3.1806641V71.65625c0,1.7539062,1.4267578,3.1806641,3.1806641,3.1806641H133  V99.5048828z M133,72.8369141h-29.8857422c-0.6513672,0-1.1806641-0.5292969-1.1806641-1.1806641V55.3271484  c0-0.6513672,0.5292969-1.1806641,1.1806641-1.1806641h21.5245361l7.3026123,8.4589844  C132.6240234,63.3945312,133,64.4033203,133,65.4443359V72.8369141z"/><path d="M111.3867188,96.984375c-3.3115234,0-6.0058594,2.6943359-6.0058594,6.0058594s2.6943359,6.0048828,6.0058594,6.0048828  s6.0058594-2.6933594,6.0058594-6.0048828S114.6982422,96.984375,111.3867188,96.984375z M111.3867188,106.9951172  c-2.2089844,0-4.0058594-1.796875-4.0058594-4.0048828c0-2.2089844,1.796875-4.0058594,4.0058594-4.0058594  s4.0058594,1.796875,4.0058594,4.0058594C115.3925781,105.1982422,113.5957031,106.9951172,111.3867188,106.9951172z"/><path d="M37.1328125,96.984375c-3.3115234,0-6.0048828,2.6943359-6.0048828,6.0058594s2.6933594,6.0048828,6.0048828,6.0048828  s6.0058594-2.6933594,6.0058594-6.0048828S40.4443359,96.984375,37.1328125,96.984375z M37.1328125,106.9951172  c-2.2080078,0-4.0048828-1.796875-4.0048828-4.0048828c0-2.2089844,1.796875-4.0058594,4.0048828-4.0058594  c2.2089844,0,4.0058594,1.796875,4.0058594,4.0058594C41.1386719,105.1982422,39.3417969,106.9951172,37.1328125,106.9951172z"/></svg>