<svg xmlns="http://www.w3.org/2000/svg" xmlns:xlink="http://www.w3.org/1999/xlink" version="1.1" x="0px" y="0px" fill='#ff6600' viewBox="0 0 100 125" style="enable-background:new 0 0 100 100;" xml:space="preserve"><g><path d="M93.4,95H92V40h1c0.6,0,1-0.4,1-1s-0.4-1-1-1h-1v-6h1c0.6,0,1-0.4,1-1s-0.4-1-1-1h-2H79h-2c-0.6,0-1,0.4-1,1s0.4,1,1,1h1v6   h-1c-0.6,0-1,0.4-1,1s0.4,1,1,1h1v7.2l-11.5-7.1C66.4,40.1,66.2,40,66,40h-8v-8h1c0.6,0,1-0.4,1-1s-0.4-1-1-1h-1v-6h1   c0.6,0,1-0.4,1-1s-0.4-1-1-1h-2H39h-2c-0.6,0-1,0.4-1,1s0.4,1,1,1h1v6h-1c-0.6,0-1,0.4-1,1s0.4,1,1,1h1v13c0,0.6,0.4,1,1,1   s1-0.4,1-1V32h16v27c0,0.6,0.4,1,1,1s1-0.4,1-1V47h5.7L78,56.2V59c0,0.6,0.4,1,1,1s1-0.4,1-1V40h10v55h-7V63c0-0.6-0.4-1-1-1H42   v-5.6l1.6-0.6c1-0.4,1.8-1.1,2.2-2.1c0.4-1,0.5-2.1,0.1-3.1c-0.4-1-1.1-1.8-2.1-2.2c-1-0.4-2.1-0.5-3.1-0.1L9,60.2   c-1,0.4-1.8,1.1-2.2,2.1c-0.4,1-0.5,2.1-0.1,3.1c0.6,1.6,2.1,2.6,3.7,2.6c0.5,0,1-0.1,1.4-0.3l0.2-0.1V95h-1c-0.6,0-1,0.4-1,1   s0.4,1,1,1h2h7h14h7h41h11.4c0.6,0,1-0.4,1-1S93.9,95,93.4,95z M56,30H40v-6h16V30z M78,53.8l-13.5-8.7C64.3,45.1,64.1,45,64,45h-6   v-3h7.7L78,49.6V53.8z M80,38v-6h10v6H80z M11.1,65.9c-1,0.4-2.2-0.2-2.6-1.2c-0.2-0.5-0.2-1,0.1-1.5c0.2-0.5,0.6-0.9,1.1-1   l31.8-11.9c0.2-0.1,0.5-0.1,0.7-0.1c0.3,0,0.6,0.1,0.8,0.2c0.5,0.2,0.9,0.6,1,1.1c0.2,0.5,0.2,1-0.1,1.5c-0.2,0.5-0.6,0.9-1.1,1   L11.1,65.9z M21,95V77h12v18H21z M35,95V76c0-0.6-0.4-1-1-1H20c-0.6,0-1,0.4-1,1v19h-5V67c0,0,0-0.1,0-0.1l26-9.7V95H35z M42,95V64   h39v31H42z"/><path d="M78,66H45c-0.6,0-1,0.4-1,1v25c0,0.6,0.4,1,1,1h33c0.6,0,1-0.4,1-1V67C79,66.4,78.6,66,78,66z M77,91H46V68h31V91z"/><path d="M48,73h27c0.6,0,1-0.4,1-1s-0.4-1-1-1H48c-0.6,0-1,0.4-1,1S47.4,73,48,73z"/><path d="M48,78h27c0.6,0,1-0.4,1-1s-0.4-1-1-1H48c-0.6,0-1,0.4-1,1S47.4,78,48,78z"/><path d="M48,83h27c0.6,0,1-0.4,1-1s-0.4-1-1-1H48c-0.6,0-1,0.4-1,1S47.4,83,48,83z"/><path d="M48,88h27c0.6,0,1-0.4,1-1s-0.4-1-1-1H48c-0.6,0-1,0.4-1,1S47.4,88,48,88z"/><path d="M30,65h-6c-0.6,0-1,0.4-1,1v6c0,0.6,0.4,1,1,1h6c0.6,0,1-0.4,1-1v-6C31,65.4,30.6,65,30,65z M29,71h-4v-4h4V71z"/><path d="M59,12c-4.4,0-8,3.6-8,8c0,0.6,0.4,1,1,1s1-0.4,1-1c0-3.3,2.7-6,6-6h9c0.6,0,1-0.4,1-1s-0.4-1-1-1H59z"/><path d="M44,21c0.6,0,1-0.4,1-1v-1c0-6.1,4.9-11,11-11h6c0.6,0,1-0.4,1-1s-0.4-1-1-1h-6c-7.2,0-13,5.8-13,13v1   C43,20.6,43.4,21,44,21z"/><path d="M66,8h2c0.6,0,1-0.4,1-1s-0.4-1-1-1h-2c-0.6,0-1,0.4-1,1S65.4,8,66,8z"/></g></svg>