<svg xmlns="http://www.w3.org/2000/svg" xmlns:xlink="http://www.w3.org/1999/xlink" version="1.1" x="0px" y="0px" fill='#ff6600' viewBox="0 0 96 120" style="enable-background:new 0 0 96 96;" xml:space="preserve"><style type="text/css">
	.st0{fill-rule:evenodd;clip-rule:evenodd;}
</style><path class="st0" d="M14.411,75.86c-3.159,0-5.729,2.57-5.729,5.729c0,3.159,2.57,5.729,5.729,5.729c0.005,0,0.009,0,0.014,0h33.561  c0.005,0,0.009,0,0.014,0s0.009,0,0.014,0h33.561c0.005,0,0.009,0,0.014,0c3.159,0,5.729-2.57,5.729-5.729  c0-3.159-2.57-5.729-5.729-5.729c-0.005,0-0.009,0-0.014,0H48.014c-0.005,0-0.009,0-0.014,0s-0.009,0-0.014,0H14.425  C14.42,75.861,14.416,75.86,14.411,75.86z M11.195,81.589c0-1.773,1.442-3.215,3.215-3.215v0h0.007  c1.77,0.004,3.208,1.444,3.208,3.215c0,1.771-1.439,3.211-3.208,3.215h-0.007v0C12.638,84.804,11.195,83.362,11.195,81.589z   M48.007,78.374c1.77,0.004,3.208,1.444,3.208,3.215c0,1.771-1.439,3.211-3.208,3.215h-0.014c-1.77-0.004-3.209-1.444-3.209-3.215  c0-1.771,1.439-3.211,3.209-3.215H48.007z M52.739,78.374H76.85c-0.624,0.917-0.99,2.024-0.99,3.215c0,1.191,0.366,2.298,0.99,3.215  H52.739c0.624-0.917,0.99-2.024,0.99-3.215C53.729,80.398,53.363,79.292,52.739,78.374z M43.261,84.804H19.15  c0.624-0.917,0.99-2.024,0.99-3.215c0-1.191-0.366-2.298-0.99-3.215h24.111c-0.624,0.917-0.99,2.024-0.99,3.215  C42.271,82.78,42.636,83.887,43.261,84.804z M84.804,81.589c0,1.773-1.442,3.215-3.215,3.215v0h-0.007  c-1.77-0.004-3.209-1.444-3.209-3.215c0-1.771,1.439-3.211,3.209-3.215h0.007v0C83.362,78.374,84.804,79.816,84.804,81.589z   M13.154,81.589c0-0.694,0.563-1.257,1.257-1.257c0.694,0,1.257,0.563,1.257,1.257c0,0.694-0.563,1.257-1.257,1.257  C13.717,82.846,13.154,82.283,13.154,81.589z M46.743,81.589c0-0.694,0.563-1.257,1.257-1.257c0.694,0,1.257,0.563,1.257,1.257  c0,0.694-0.563,1.257-1.257,1.257C47.306,82.846,46.743,82.283,46.743,81.589z M82.845,81.589c0,0.694-0.563,1.257-1.257,1.257  s-1.257-0.563-1.257-1.257c0-0.694,0.563-1.257,1.257-1.257S82.845,80.895,82.845,81.589z M91.088,11.196  c0.694,0,1.257-0.563,1.257-1.257V4.912c0-0.694-0.563-1.257-1.257-1.257H4.912c-0.694,0-1.257,0.563-1.257,1.257v5.027  c0,0.694,0.563,1.257,1.257,1.257h15.857v12.205c-2.556,0.575-4.472,2.861-4.472,5.588c0,1.179,0.358,2.276,0.972,3.188  l-3.113,3.521c-0.965,1.091-0.957,2.998-0.396,4.139l2.165,4.409v6.227h-3.298c-0.407,0-0.789,0.197-1.024,0.529  c-0.236,0.332-0.296,0.757-0.163,1.141l1.714,4.929V70.91c-5.34,0.625-9.499,5.174-9.499,10.68c0,5.931,4.825,10.755,10.755,10.755  h67.179c5.931,0,10.755-4.825,10.755-10.755S87.52,70.834,81.589,70.834H56.872V56.86c0-0.694-0.563-1.257-1.257-1.257H40.384  c-0.694,0-1.257,0.563-1.257,1.257v13.974h-8.23V57.072l1.714-4.929c0.134-0.384,0.073-0.809-0.163-1.141  c-0.236-0.332-0.617-0.529-1.024-0.529h-3.298v-6.227l2.165-4.409c0.561-1.141,0.568-3.048-0.396-4.139l-3.113-3.521  c0.613-0.912,0.972-2.009,0.972-3.188c0-2.727-1.916-5.014-4.472-5.588V11.196h49.434v3.228c-2.556,0.575-4.472,2.861-4.472,5.588  c0,0.542,0.077,1.065,0.218,1.562l-8.126,4.903c-0.79,0.477-1.318,1.272-1.448,2.181c-0.13,0.909,0.154,1.82,0.779,2.499  l5.433,5.903v11.373c0,0.694,0.563,1.257,1.257,1.257h15.231c0.694,0,1.257-0.563,1.257-1.257V37.061l5.434-5.903  c0.625-0.679,0.909-1.59,0.78-2.499c-0.13-0.909-0.658-1.704-1.448-2.181l-8.126-4.903c0.141-0.497,0.218-1.021,0.218-1.562  c0-2.727-1.916-5.014-4.472-5.588v-3.228H91.088z M89.831,81.589c0,4.545-3.697,8.242-8.242,8.242H14.411  c-4.545,0-8.242-3.697-8.242-8.242c0-4.545,3.697-8.242,8.242-8.242h67.179C86.134,73.347,89.831,77.045,89.831,81.589z   M47.066,58.117h1.868v2.573h-1.868V58.117z M41.641,58.117h2.911v3.83c0,0.694,0.563,1.257,1.257,1.257h4.381  c0.694,0,1.257-0.563,1.257-1.257v-3.83h2.911v12.717H41.641V58.117z M15.667,70.834V58.117h12.717v12.717H15.667z M28.748,55.603  H15.304l-0.91-2.616h15.264L28.748,55.603z M18.438,50.474v-9.42h7.175v9.42H18.438z M28.036,38.73l-0.157,0.32  c-0.229-0.309-0.595-0.509-1.009-0.509h-9.689c-0.414,0-0.78,0.201-1.009,0.51l-0.157-0.32c-0.206-0.419-0.133-1.19,0.023-1.366  l3.055-3.455c0.858,0.514,1.861,0.81,2.932,0.81c1.071,0,2.074-0.296,2.932-0.81l3.055,3.455  C28.169,37.54,28.242,38.311,28.036,38.73z M25.241,28.989c0,1.773-1.442,3.215-3.215,3.215c-1.773,0-3.215-1.442-3.215-3.215  c0-1.773,1.442-3.215,3.215-3.215C23.799,25.774,25.241,27.216,25.241,28.989z M80.332,47.177H67.615V34.46h2.911v3.83  c0,0.694,0.563,1.257,1.257,1.257h4.381c0.694,0,1.257-0.563,1.257-1.257v-3.83h2.911V47.177z M73.04,34.46h1.868v2.573H73.04V34.46  z M86.312,28.63c0.194,0.117,0.245,0.291,0.259,0.385c0.013,0.093,0.013,0.275-0.141,0.441l-3.584,3.894v-0.146  c0-0.694-0.563-1.257-1.257-1.257H66.358c-0.694,0-1.257,0.563-1.257,1.257v0.146l-3.584-3.894  c-0.153-0.167-0.154-0.348-0.141-0.441s0.065-0.268,0.259-0.385l8.032-4.846c1.051,1.198,2.591,1.957,4.307,1.957  c1.715,0,3.256-0.759,4.307-1.957L86.312,28.63z M77.189,20.012c0,1.773-1.442,3.215-3.215,3.215c-1.773,0-3.215-1.442-3.215-3.215  s1.442-3.215,3.215-3.215C75.747,16.797,77.189,18.239,77.189,20.012z M25.804,6.169h44.391v2.513H25.804V6.169z M23.291,8.682  h-2.53V6.169h2.53V8.682z M72.709,6.169h2.53v2.513h-2.53V6.169z M89.831,8.682H77.752V6.169h12.079V8.682z M6.169,6.169h12.079  v2.513H6.169V6.169z M73.974,18.756c0.694,0,1.257,0.563,1.257,1.257s-0.563,1.257-1.257,1.257c-0.694,0-1.257-0.563-1.257-1.257  S73.28,18.756,73.974,18.756z M22.026,27.732c0.694,0,1.257,0.563,1.257,1.257c0,0.174-0.035,0.339-0.099,0.489  c-0.191,0.451-0.637,0.768-1.158,0.768c-0.521,0-0.967-0.317-1.158-0.768c-0.064-0.15-0.099-0.316-0.099-0.489  C20.769,28.295,21.332,27.732,22.026,27.732z"/></svg>