<svg xmlns="http://www.w3.org/2000/svg" xmlns:xlink="http://www.w3.org/1999/xlink" version="1.1" x="0px" y="0px" fill='#ff6600' viewBox="0 0 100 125" style="enable-background:new 0 0 100 100;" xml:space="preserve"><g><path d="M92.689888,40.473362H17.4369316l71.7679443-22.6427422c2.5029068-0.7898636,3.8916092-3.4591761,3.1017456-5.9620113   c0-0.0001507-0.0000763-0.0003023-0.0000763-0.0003777l-1.9009018-6.0416999   c-0.7880478-2.5034392-3.4563828-3.8940287-5.9598923-3.1059775c-0.0029526,0.0009062-0.0058975,0.0018883-0.0089188,0.0027947   L5.8826494,27.507719c-2.5031371,0.7891083-3.8926692,3.4579678-3.1035604,5.9611034   c0.0000753,0.0004539,0.0002265,0.0009079,0.0003777,0.0013618l2.7863913,8.8311882v50.4464531   C5.5658579,95.372345,7.6935124,97.5,10.3181086,97.5H92.689888c2.6245193,0,4.7521744-2.127655,4.7521744-4.7521744v-47.522213   C97.4420624,42.601017,95.3144073,40.473362,92.689888,40.473362z M76.193306,43.6415062l9.5045013,9.5045013H74.3368225   l-9.504425-9.5045013H76.193306z M60.3525963,43.6415062l9.5044289,9.5045013H58.496109l-9.5045013-9.5045013H60.3525963z    M44.5118828,43.6415062l9.5044289,9.5045013H42.655323l-9.5044289-9.5045013H44.5118828z M28.6711731,43.6415062   l9.504425,9.5045013H26.8146114l-9.504427-9.5045013H28.6711731z M22.3348885,53.1460075H8.7340002v-9.5045013h4.0964603   L22.3348885,53.1460075z M85.3904572,5.7457843c0.8336792-0.2627845,1.722641,0.1994114,1.986412,1.032783l1.9008942,6.043211   c0.2656555,0.8319368-0.1920776,1.7218838-1.023262,1.9896536l-2.3967056,0.7555714L73.9296875,9.3622236L85.3904572,5.7457843z    M69.65905,10.7086258l11.9217529,6.204855l-10.8351135,3.4183884l-11.9216843-6.2047796L69.65905,10.7086258z    M54.5517006,15.475153l11.9233437,6.2047787l-10.8366318,3.4184647l-11.9217567-6.204855L54.5517006,15.475153z    M39.4460144,20.2384319l11.9217567,6.2064419l-10.8351173,3.4152145l-11.9232674-6.2031918L39.4460144,20.2384319z    M24.3387413,25.0080566l11.9216805,6.2032681l-10.9950218,3.4691486l-11.7522583-6.2571259L24.3387413,25.0080566z    M5.8082476,32.5181465c-0.2644458-0.8318615,0.1938219-1.7209015,1.0248518-1.9879913l2.4458065-0.7714329l11.7522564,6.2571239   L8.1843357,40.0694809L5.8082476,32.5181465z M10.3181086,94.3318558c-0.8749151,0-1.5841084-0.7091904-1.5841084-1.5840302   V56.3141479h29.8217621c-10.4983082,6.2421684-13.9485722,19.8130722-7.7064037,30.3113785   c1.8857174,3.1713943,4.5349407,5.82061,7.7064037,7.7063293H10.3181086z M30.9109974,75.3230057   c0.011404-10.4936295,8.5153027-18.9975243,19.0089283-19.0088577c10.4983101,0,19.0088539,8.5105438,19.0088539,19.0088577   s-8.5105438,19.0088501-19.0088539,19.0088501S30.9109974,85.821312,30.9109974,75.3230057z M94.2739182,92.7478256   c0,0.8748398-0.7091904,1.5840302-1.5840302,1.5840302H61.2840118   c10.4983063-6.2421646,13.9485703-19.8130646,7.7064056-30.3113785c-1.8857193-3.1713905-4.5349426-5.8206863-7.7064056-7.7063293   h32.9899063V92.7478256z M94.2739182,53.1460075H90.177536l-9.5044327-9.5045013H92.689888   c0.8748398,0,1.5840302,0.7092667,1.5840302,1.5841064V53.1460075z"/><path d="M57.9749222,72.6063309l-11.1756287-6.7054214c-1.4998856-0.901123-3.4461823-0.415741-4.3473091,1.0841446   c-0.2962456,0.4930115-0.4526024,1.0574112-0.4524536,1.6325302v13.4107666   c-0.0078545,1.1443481,0.6084328,2.2020569,1.60783,2.7594986c0.4763184,0.2702637,1.0142746,0.4132538,1.5619011,0.4149857   c0.57444-0.0009766,1.1376228-0.1593018,1.6284485-0.4578094l11.1772118-6.7053528   c1.5003395-0.9002151,1.9869347-2.846283,1.0867157-4.3466263C58.7940941,73.2470932,58.4208794,72.8738708,57.9749222,72.6063309z    M45.167675,82.0283508V68.6175842l11.1772118,6.7054214L45.167675,82.0283508z"/><path d="M13.4862509,11.9600811h1.584034v1.5841084c0,0.8748407,0.7091932,1.584034,1.5841093,1.584034   c0.8748398,0,1.5840321-0.7091932,1.5840321-1.584034v-1.5841084h1.5841103c0.8748398,0,1.5840321-0.7091932,1.5840321-1.5841093   c0-0.8748398-0.7091923-1.584033-1.5840321-1.584033h-1.5841103V7.2078295c0-0.8748403-0.7091923-1.584033-1.5840321-1.584033   c-0.8749161,0-1.5841093,0.7091928-1.5841093,1.584033v1.5841093h-1.584034c-0.8749151,0-1.5841084,0.7091932-1.5841084,1.584033   C11.9021425,11.2508879,12.6113358,11.9600811,13.4862509,11.9600811z"/><path d="M84.7694931,35.7211876c0.8748398,0,1.5841064-0.7091942,1.5841064-1.5841103v-1.584034h1.5840378   c0.8748398,0,1.5841064-0.7092686,1.5841064-1.5841084s-0.7092667-1.584034-1.5841064-1.584034h-1.5840378v-1.5841084   c0-0.8748398-0.7092667-1.584034-1.5841064-1.584034s-1.5840378,0.7091942-1.5840378,1.584034v1.5841084h-1.5841064   c-0.8748398,0-1.5840302,0.7091942-1.5840302,1.584034s0.7091904,1.5841084,1.5840302,1.5841084h1.5841064v1.584034   C83.1854553,35.0119934,83.8946533,35.7211876,84.7694931,35.7211876z"/></g></svg>