<svg xmlns="http://www.w3.org/2000/svg" data-name="Layer 1"  fill='#ff6600' viewBox="0 0 100 125" x="0px" y="0px"><path d="M85.078,37.428h-31.5L48.365,31.9l-.026-.024a3.332,3.332,0,0,0,.292-1.358,3.787,3.787,0,0,0-2.565-3.436,1.213,1.213,0,0,0,.01-.148l.007-4.328c1.858-.775,3.115-1.858,3.115-3.344V10.076c0-.043,0-.084-.008-.125-.089-1.61-1.706-2.88-4.817-3.775A36.95,36.95,0,0,0,34.585,5,36.95,36.95,0,0,0,24.8,6.176c-3.11.894-4.726,2.164-4.817,3.773a1.12,1.12,0,0,0-.009.143V19.26c0,1.486,1.256,2.568,3.112,3.343l-.007,4.323a1.4,1.4,0,0,0,.011.16,3.784,3.784,0,0,0-2.55,3.43,3.361,3.361,0,0,0,.288,1.362l-.021.02-7.384,7.825a13.465,13.465,0,0,0-3.737,9.545V87.607A7.235,7.235,0,0,0,16.731,95H52.439a7.194,7.194,0,0,0,7.011-6.651H85.078a5.244,5.244,0,0,0,5.238-5.238V42.665A5.243,5.243,0,0,0,85.078,37.428ZM43.321,20.877l-.025.006v-6.6c.371-.088.731-.18,1.076-.28a13.949,13.949,0,0,0,2.326-.873v6.109C46.618,19.465,45.848,20.206,43.321,20.877Zm-9.986-5.71v6.667a39.051,39.051,0,0,1-4.961-.437V14.755A42.236,42.236,0,0,0,33.335,15.167Zm2.5,0a42.236,42.236,0,0,0,4.961-.412V21.4a39.084,39.084,0,0,1-4.961.437ZM25.866,8.475A35.5,35.5,0,0,1,34.585,7.5a35.493,35.493,0,0,1,8.718.975c2.468.653,3.27,1.374,3.387,1.617-.117.242-.919.964-3.387,1.617a35.542,35.542,0,0,1-8.718.975,35.55,35.55,0,0,1-8.719-.975c-2.467-.653-3.269-1.375-3.386-1.617C22.6,9.849,23.4,9.128,25.866,8.475ZM22.472,19.243V13.134a13.916,13.916,0,0,0,2.326.873c.345.1.7.192,1.076.28v6.6l-.025-.006C23.321,20.206,22.552,19.465,22.472,19.243Zm12.113,5.109a40.9,40.9,0,0,0,9-.953l-.006,3.368c-.894.032-1.976.113-3.189.2-1.9.143-4.062.3-5.983.3s-3.961-.162-5.764-.3c-1.156-.091-2.186-.172-3.062-.2l0-3.369A40.871,40.871,0,0,0,34.585,24.352Zm-9.718,4.9c.908,0,2.144.1,3.576.211,1.849.147,3.945.313,5.961.313s4.222-.166,6.17-.312c1.512-.114,2.818-.212,3.729-.212.974,0,1.828.591,1.828,1.264a1.06,1.06,0,0,1-.392.762C43.688,32.316,39.085,32.46,34.4,32.46c-3.986,0-8.822-.147-11.076-1.277a.9.9,0,0,1-.29-.667C23.038,29.843,23.893,29.252,24.867,29.252ZM15.239,41.439l7.384-7.825,0,0c2.208.953,5.727,1.348,11.779,1.348,5.677,0,9.746-.226,12.173-1.314l4.146,4.394a5.242,5.242,0,0,0-2.783,4.625v8.874H12.184V49.268A11.042,11.042,0,0,1,15.239,41.439Zm-3.055,12.6H47.94V78.412H12.184ZM52.439,92.5H16.731a4.735,4.735,0,0,1-4.547-4.893V80.912H47.94v2.2a5.243,5.243,0,0,0,5.237,5.238h3.756A4.672,4.672,0,0,1,52.439,92.5Zm35.377-9.389a2.741,2.741,0,0,1-2.738,2.738h-31.9a2.741,2.741,0,0,1-2.737-2.738V42.665a2.74,2.74,0,0,1,2.737-2.737h31.9a2.741,2.741,0,0,1,2.738,2.737ZM70.378,44.8V80.975a1.25,1.25,0,0,1-2.5,0V44.8a1.25,1.25,0,0,1,2.5,0Zm12.38-.588H75.436a3.816,3.816,0,1,0,0,7.631h7.322a3.816,3.816,0,0,0,0-7.631ZM74.12,48.029a1.317,1.317,0,0,1,1.316-1.315h2.411v2.631H75.436A1.317,1.317,0,0,1,74.12,48.029Zm8.638,1.316H80.347V46.714h2.411a1.316,1.316,0,0,1,0,2.631Zm0,4.775H75.436a3.816,3.816,0,1,0,0,7.631h7.322a3.816,3.816,0,0,0,0-7.631ZM74.12,57.935a1.317,1.317,0,0,1,1.316-1.315h2.411v2.631H75.436A1.317,1.317,0,0,1,74.12,57.935Zm8.638,1.316H80.347V56.62h2.411a1.316,1.316,0,0,1,0,2.631Zm0,4.775H75.436a3.816,3.816,0,1,0,0,7.631h7.322a3.816,3.816,0,0,0,0-7.631ZM74.12,67.841a1.317,1.317,0,0,1,1.316-1.315h2.411v2.631H75.436A1.317,1.317,0,0,1,74.12,67.841Zm8.638,1.316H80.347V66.526h2.411a1.316,1.316,0,0,1,0,2.631Zm0,4.775H75.436a3.816,3.816,0,1,0,0,7.631h7.322a3.816,3.816,0,0,0,0-7.631ZM74.12,77.748a1.317,1.317,0,0,1,1.316-1.316h2.411v2.631H75.436A1.317,1.317,0,0,1,74.12,77.748Zm8.638,1.315H80.347V76.432h2.411a1.316,1.316,0,0,1,0,2.631ZM62.82,44.214H55.5a3.816,3.816,0,1,0,0,7.631H62.82a3.816,3.816,0,0,0,0-7.631Zm-8.638,3.815A1.317,1.317,0,0,1,55.5,46.714h2.411v2.631H55.5A1.317,1.317,0,0,1,54.182,48.029Zm8.638,1.316H60.409V46.714H62.82a1.316,1.316,0,0,1,0,2.631Zm0,4.775H55.5a3.816,3.816,0,1,0,0,7.631H62.82a3.816,3.816,0,0,0,0-7.631Zm-8.638,3.815A1.317,1.317,0,0,1,55.5,56.62h2.411v2.631H55.5A1.317,1.317,0,0,1,54.182,57.935Zm8.638,1.316H60.409V56.62H62.82a1.316,1.316,0,0,1,0,2.631Zm0,4.775H55.5a3.816,3.816,0,1,0,0,7.631H62.82a3.816,3.816,0,0,0,0-7.631Zm-8.638,3.815A1.317,1.317,0,0,1,55.5,66.526h2.411v2.631H55.5A1.317,1.317,0,0,1,54.182,67.841Zm8.638,1.316H60.409V66.526H62.82a1.316,1.316,0,0,1,0,2.631Zm0,4.775H55.5a3.816,3.816,0,1,0,0,7.631H62.82a3.816,3.816,0,0,0,0-7.631Zm-8.638,3.816A1.317,1.317,0,0,1,55.5,76.432h2.411v2.631H55.5A1.317,1.317,0,0,1,54.182,77.748Zm8.638,1.315H60.409V76.432H62.82a1.316,1.316,0,0,1,0,2.631ZM43.641,62.357H38.453V57.17a1.249,1.249,0,0,0-1.25-1.25H31.966a1.25,1.25,0,0,0-1.25,1.25v5.187H25.529a1.25,1.25,0,0,0-1.25,1.25v5.237a1.249,1.249,0,0,0,1.25,1.25h5.187v5.188a1.25,1.25,0,0,0,1.25,1.25H37.2a1.249,1.249,0,0,0,1.25-1.25V70.094h5.188a1.249,1.249,0,0,0,1.25-1.25V63.607A1.25,1.25,0,0,0,43.641,62.357Zm-1.25,5.237H37.2a1.25,1.25,0,0,0-1.25,1.25v5.188H33.216V68.844a1.25,1.25,0,0,0-1.25-1.25H26.779V64.857h5.187a1.249,1.249,0,0,0,1.25-1.25V58.42h2.737v5.187a1.25,1.25,0,0,0,1.25,1.25h5.188Z"/></svg>