<svg xmlns="http://www.w3.org/2000/svg" fill='#ff6600' viewBox="0 0 100 125" x="0px" y="0px"><path d="m5.04,55.47c0-.83.67-1.5,1.5-1.5h86.93c.83,0,1.5.67,1.5,1.5s-.67,1.5-1.5,1.5H6.54c-.83,0-1.5-.67-1.5-1.5Zm5.81-19.99c0-.83.67-1.5,1.5-1.5h4.1c4.42-14.22,17.45-24.17,32.32-24.7-.17-.24-.26-.53-.26-.85v-3.4c0-.83.67-1.5,1.5-1.5s1.5.67,1.5,1.5v3.4c0,.32-.1.61-.26.85,14.87.52,27.89,10.48,32.32,24.7h4.1c.83,0,1.5.67,1.5,1.5s-.67,1.5-1.5,1.5H12.35c-.83,0-1.5-.67-1.5-1.5Zm8.75-1.5h60.8c-4.42-12.89-16.65-21.73-30.4-21.73s-25.98,8.84-30.4,21.73Zm73.87,59.49H6.54c-.83,0-1.5.67-1.5,1.5s.67,1.5,1.5,1.5h86.93c.83,0,1.5-.67,1.5-1.5s-.67-1.5-1.5-1.5ZM31.54,61.01v28.41c0,.83.67,1.5,1.5,1.5s1.5-.67,1.5-1.5v-28.41c0-.83-.67-1.5-1.5-1.5s-1.5.67-1.5,1.5Zm-10.34,0v28.41c0,.83.67,1.5,1.5,1.5s1.5-.67,1.5-1.5v-28.41c0-.83-.67-1.5-1.5-1.5s-1.5.67-1.5,1.5Zm-10.34,0v28.41c0,.83.67,1.5,1.5,1.5s1.5-.67,1.5-1.5v-28.41c0-.83-.67-1.5-1.5-1.5s-1.5.67-1.5,1.5Zm75.3,0v28.41c0,.83.67,1.5,1.5,1.5s1.5-.67,1.5-1.5v-28.41c0-.83-.67-1.5-1.5-1.5s-1.5.67-1.5,1.5Zm-10.34,0v28.41c0,.83.67,1.5,1.5,1.5s1.5-.67,1.5-1.5v-28.41c0-.83-.67-1.5-1.5-1.5s-1.5.67-1.5,1.5Zm-10.34,0v28.41c0,.83.67,1.5,1.5,1.5s1.5-.67,1.5-1.5v-28.41c0-.83-.67-1.5-1.5-1.5s-1.5.67-1.5,1.5Zm-37.65-20.51v9.94c0,.83.67,1.5,1.5,1.5s1.5-.67,1.5-1.5v-9.94c0-.83-.67-1.5-1.5-1.5s-1.5.67-1.5,1.5Zm-10.34,0v9.94c0,.83.67,1.5,1.5,1.5s1.5-.67,1.5-1.5v-9.94c0-.83-.67-1.5-1.5-1.5s-1.5.67-1.5,1.5Zm62.06,0v9.94c0,.83.67,1.5,1.5,1.5s1.5-.67,1.5-1.5v-9.94c0-.83-.67-1.5-1.5-1.5s-1.5.67-1.5,1.5Zm-10.34,0v9.94c0,.83.67,1.5,1.5,1.5s1.5-.67,1.5-1.5v-9.94c0-.83-.67-1.5-1.5-1.5s-1.5.67-1.5,1.5Zm-10.34,0v9.94c0,.83.67,1.5,1.5,1.5s1.5-.67,1.5-1.5v-9.94c0-.83-.67-1.5-1.5-1.5s-1.5.67-1.5,1.5Zm-10.34,0v9.94c0,.83.67,1.5,1.5,1.5s1.5-.67,1.5-1.5v-9.94c0-.83-.67-1.5-1.5-1.5s-1.5.67-1.5,1.5Zm-10.34,0v9.94c0,.83.67,1.5,1.5,1.5s1.5-.67,1.5-1.5v-9.94c0-.83-.67-1.5-1.5-1.5s-1.5.67-1.5,1.5Z"/></svg>