<svg xmlns="http://www.w3.org/2000/svg" xmlns:xlink="http://www.w3.org/1999/xlink" version="1.1" x="0px" y="0px" fill="#ff6600" viewBox="0 0 66 82.5" style="enable-background:new 0 0 66 66;" xml:space="preserve"><path d="M23.11,19.86c0,1.16,0.94,2.09,2.09,2.09s2.09-0.94,2.09-2.09s-0.94-2.09-2.09-2.09S23.11,18.71,23.11,19.86z"/><path d="M10.86,8.9c0.19,0,0.38-0.07,0.53-0.22c7.61-7.61,20-7.61,27.61,0c0.29,0.29,0.77,0.29,1.06,0s0.29-0.77,0-1.06  c-8.2-8.2-21.54-8.2-29.73,0c-0.29,0.29-0.29,0.77,0,1.06C10.48,8.83,10.67,8.9,10.86,8.9z"/><path d="M35.55,12.88c0.19,0,0.38-0.07,0.53-0.22c0.29-0.29,0.29-0.77,0-1.06c-6-6-15.77-6-21.77,0c-0.29,0.29-0.29,0.77,0,1.06  s0.77,0.29,1.06,0c5.42-5.42,14.23-5.42,19.65,0C35.17,12.81,35.36,12.88,35.55,12.88z"/><path d="M31.57,16.86c0.19,0,0.38-0.07,0.53-0.22c0.29-0.29,0.29-0.77,0-1.06c-3.8-3.81-10-3.81-13.8,0c-0.29,0.29-0.29,0.77,0,1.06  s0.77,0.29,1.06,0c3.22-3.22,8.46-3.22,11.68,0C31.19,16.79,31.38,16.86,31.57,16.86z"/><path d="M64,19.18h-5.34v-3.17c0-3.59-2.92-6.51-6.51-6.51s-6.51,2.92-6.51,6.51v3.17h-5.34c-0.41,0-0.75,0.34-0.75,0.75v19.74  c0,3.07,2.5,5.57,5.57,5.57h14.05c3.07,0,5.57-2.5,5.57-5.57V19.93C64.75,19.51,64.41,19.18,64,19.18z M47.14,16.01  c0-2.76,2.25-5.01,5.01-5.01s5.01,2.25,5.01,5.01v3.17H47.14V16.01z M41.06,20.68h4.59v2.14c0,0.41,0.34,0.75,0.75,0.75  s0.75-0.34,0.75-0.75v-2.14h10.02v2.14c0,0.41,0.34,0.75,0.75,0.75s0.75-0.34,0.75-0.75v-2.14h4.59V37.7H41.06V20.68z M63.25,39.67  c0,2.25-1.83,4.07-4.07,4.07H45.13c-2.25,0-4.07-1.83-4.07-4.07V39.2h22.19V39.67z"/><path d="M43.43,53.35H17.77l-1.14-4.52h26.64c0.34,0,0.64-0.23,0.73-0.57l0.2-0.78c0.1-0.4-0.14-0.81-0.54-0.91  c-0.4-0.1-0.81,0.14-0.91,0.54l-0.05,0.21h-10v-4.07h4.83c0.41,0,0.75-0.34,0.75-0.75s-0.34-0.75-0.75-0.75h-4.83V37.8h4.62  c0.41,0,0.75-0.34,0.75-0.75s-0.34-0.75-0.75-0.75h-4.62v-3.96h4.62c0.41,0,0.75-0.34,0.75-0.75s-0.34-0.75-0.75-0.75h-4.62v-4.07  h4.62c0.41,0,0.75-0.34,0.75-0.75s-0.34-0.75-0.75-0.75H10.7l-1.16-4.63c-0.08-0.33-0.38-0.57-0.73-0.57H2  c-0.41,0-0.75,0.34-0.75,0.75S1.59,21.57,2,21.57h6.22l8.23,32.72c0.08,0.33,0.38,0.57,0.73,0.57h26.25c1.34,0,2.42,1.09,2.42,2.42  s-1.09,2.42-2.42,2.42h-1.75c-0.35-1.89-2.01-3.33-4-3.33s-3.65,1.44-4,3.33h-5.05c-0.35-1.89-2.01-3.33-4-3.33s-3.65,1.44-4,3.33  h-3.09c-0.41,0-0.75,0.34-0.75,0.75s0.34,0.75,0.75,0.75h3.09c0.35,1.89,2.01,3.33,4,3.33s3.65-1.44,4-3.33h5.05  c0.35,1.89,2.01,3.33,4,3.33s3.65-1.44,4-3.33h1.75c2.16,0,3.92-1.76,3.92-3.92S45.59,53.35,43.43,53.35z M14.85,41.76l-1-3.96h7.32  v3.96H14.85z M21.18,43.26v4.07h-4.92l-1.02-4.07H21.18z M13.48,36.3l-1-3.96h8.7v3.96H13.48z M31.18,47.33h-8.51v-4.07h8.51V47.33z   M31.18,41.76h-8.51V37.8h8.51V41.76z M31.18,36.3h-8.51v-3.96h8.51V36.3z M31.18,30.83h-8.51v-4.07h8.51V30.83z M21.18,26.76v4.07  H12.1l-1.02-4.07H21.18z M24.63,63.03c-1.42,0-2.58-1.16-2.58-2.58s1.16-2.58,2.58-2.58s2.58,1.16,2.58,2.58  S26.05,63.03,24.63,63.03z M37.68,63.03c-1.42,0-2.58-1.16-2.58-2.58s1.16-2.58,2.58-2.58s2.58,1.16,2.58,2.58  S39.1,63.03,37.68,63.03z"/></svg>