<svg xmlns="http://www.w3.org/2000/svg" xmlns:xlink="http://www.w3.org/1999/xlink" version="1.1" x="0px" y="0px" fill='#ff6600' viewBox="0 0 100 125" style="enable-background:new 0 0 100 100;" xml:space="preserve"><path d="M90.04,79.17H87.1c-0.95-3.34-4.07-5.79-7.63-5.79h-0.32l-2.31-10.35c3.96-0.3,7.74-2.01,10.58-4.85l1.09-1.09l-4.53-4.53  l1.45-11.34c0.84-0.14,1.6-0.53,2.21-1.14c1.6-1.6,1.6-4.2,0-5.79c-0.77-0.77-1.8-1.2-2.89-1.2c-1.09,0-2.12,0.43-2.89,1.2  c-0.62,0.62-1,1.4-1.14,2.21l-11.34,1.46l-4.53-4.53l-1.09,1.09c-6.52,6.52-6.52,17.13,0,23.65c0.59,0.59,1.23,1.13,1.9,1.63  l-3.03,13.57h-0.72c-3.56,0-6.68,2.45-7.63,5.79h-2.95c-0.1,0-0.2,0-0.3,0.01l-5.74-14.26c-0.01-0.04-0.03-0.08-0.05-0.12  l-7.09-17.61c-0.01-0.04-0.03-0.08-0.05-0.11l-3.65-9.05c2.83-1.45,4.77-4.39,4.77-7.78c0-4.82-3.92-8.74-8.74-8.74  c-4.82,0-8.74,3.92-8.74,8.74c0,3.39,1.95,6.34,4.78,7.78l-3.63,9.02c-0.03,0.06-0.05,0.11-0.07,0.17l-7.09,17.6  c-0.01,0.02-0.02,0.04-0.02,0.06l-7.01,17.4c0,0.01,0,0.01-0.01,0.02l-1.84,4.58c-0.19,0.48-0.13,1.02,0.15,1.44  c0.29,0.43,0.77,0.68,1.28,0.68h39.57c0.36,0.17,0.75,0.27,1.17,0.27h43.32c1.51,0,2.74-1.23,2.74-2.75v-2.3  C95.08,81.43,92.82,79.17,90.04,79.17z M84.04,36.48c0.19-0.19,0.44-0.29,0.71-0.29c0.27,0,0.52,0.1,0.71,0.29l0,0  c0.39,0.39,0.39,1.03,0,1.42c-0.19,0.19-0.44,0.29-0.71,0.29c-0.27,0-0.52-0.1-0.71-0.29C83.65,37.51,83.65,36.87,84.04,36.48z   M81.4,39.54c0.13,0.19,0.28,0.38,0.46,0.55c0.17,0.17,0.35,0.32,0.54,0.45l-1.19,9.26l-9.08-9.07L81.4,39.54z M65.94,56  c-4.94-4.95-5.29-12.78-1.03-18.13l19.16,19.16c-2.26,1.79-5.03,2.83-7.92,2.95l-0.98-4.4c-0.51-2.24-2.23-3.75-4.29-3.75  c-2.06,0-3.78,1.51-4.29,3.76l-0.19,0.86C66.24,56.29,66.09,56.15,65.94,56z M69.61,56.26c0.18-0.8,0.7-1.34,1.28-1.34  c0.58,0,1.09,0.54,1.27,1.34l3.83,17.13h-10.2L69.61,56.26z M61.89,76.48h17.57c1.86,0,3.53,1.1,4.33,2.7H57.56  C58.37,77.57,60.03,76.48,61.89,76.48z M24.94,50.21l3.08,2.48l-6.05,4.88L24.94,50.21z M17.95,67.56l9.2,4.76L13.1,79.59  L17.95,67.56z M19.11,64.68l0.49-1.23l10.88-8.77l10.86,8.76l0.51,1.27l-11.35,5.87L19.11,64.68z M38.98,57.56l-6.03-4.86l3.08-2.48  L38.98,57.56z M43.02,67.59l4.82,11.96l-13.96-7.23L43.02,67.59z M24.83,30.23c0-3.12,2.53-5.65,5.65-5.65  c3.11,0,5.65,2.53,5.65,5.65c0,3.11-2.53,5.65-5.65,5.65C27.36,35.88,24.83,33.35,24.83,30.23z M30.48,38.97  c0.33,0,0.66-0.02,0.99-0.06l3.35,8.31l-4.33,3.49l-4.34-3.5l3.34-8.3C29.81,38.95,30.14,38.97,30.48,38.97z M11.33,83.99  l19.18-9.93l16.11,8.34c-0.22,0.56-0.34,1.17-0.34,1.81v1.68H10.56L11.33,83.99z M91.99,86.16H49.37v-1.95  c0-0.51,0.2-0.97,0.52-1.32c0.03-0.02,0.05-0.05,0.07-0.08c0.17-0.17,0.38-0.31,0.6-0.4c0.03-0.01,0.06-0.02,0.08-0.03  c0.01,0,0.01-0.01,0.02-0.01c0.21-0.07,0.43-0.12,0.66-0.12h38.73c1.07,0,1.95,0.87,1.95,1.95V86.16z M99.5,37.19  c0,0.85-0.69,1.55-1.55,1.55s-1.55-0.69-1.55-1.55c0-3.11-1.21-6.04-3.42-8.25c-2.2-2.2-5.13-3.41-8.24-3.41  c-0.85,0-1.55-0.69-1.55-1.55s0.69-1.55,1.55-1.55c3.94,0,7.64,1.53,10.43,4.32C97.96,29.54,99.5,33.25,99.5,37.19z M84.75,30.86  c-0.85,0-1.55-0.69-1.55-1.55s0.69-1.55,1.55-1.55c2.52,0,4.88,0.98,6.66,2.76c1.78,1.78,2.76,4.15,2.76,6.66  c0,0.85-0.69,1.55-1.55,1.55s-1.55-0.69-1.55-1.55c0-1.69-0.66-3.28-1.85-4.48C88.03,31.52,86.44,30.86,84.75,30.86z M52.14,47.31  c3.42-5.05,5.22-10.95,5.22-17.07s-1.81-12.03-5.22-17.07c-0.48-0.71-0.29-1.67,0.41-2.15c0.71-0.48,1.67-0.29,2.15,0.41  c3.76,5.56,5.75,12.06,5.75,18.81s-1.99,13.24-5.75,18.81c-0.3,0.44-0.79,0.68-1.28,0.68c-0.3,0-0.6-0.09-0.86-0.27  C51.85,48.97,51.66,48.01,52.14,47.31z M43.25,19.16c-0.48-0.71-0.29-1.67,0.42-2.15c0.71-0.48,1.67-0.29,2.15,0.42  c2.56,3.79,3.92,8.22,3.92,12.8c0,4.58-1.35,9.01-3.92,12.8c-0.3,0.44-0.79,0.68-1.28,0.68c-0.3,0-0.6-0.09-0.86-0.27  c-0.71-0.48-0.89-1.44-0.41-2.15c2.21-3.27,3.38-7.1,3.38-11.07C46.63,26.27,45.46,22.44,43.25,19.16z M7.54,49.72  c-0.5,0-0.98-0.24-1.28-0.68C2.49,43.48,0.5,36.97,0.5,30.23s1.99-13.24,5.75-18.81c0.48-0.71,1.44-0.89,2.15-0.41  c0.71,0.48,0.89,1.44,0.41,2.15C5.4,18.21,3.59,24.11,3.59,30.23S5.4,42.26,8.81,47.31c0.48,0.71,0.29,1.67-0.41,2.15  C8.13,49.63,7.83,49.72,7.54,49.72z M15.14,43.03c-2.56-3.79-3.92-8.21-3.92-12.8c0-4.58,1.35-9.01,3.92-12.8  c0.48-0.71,1.44-0.89,2.15-0.42c0.71,0.48,0.89,1.44,0.42,2.15c-2.21,3.28-3.39,7.11-3.39,11.07c0,3.97,1.17,7.79,3.38,11.07  c0.48,0.71,0.29,1.67-0.41,2.15c-0.27,0.18-0.57,0.27-0.86,0.27C15.93,43.71,15.44,43.47,15.14,43.03z"/></svg>