<svg xmlns="http://www.w3.org/2000/svg" data-name="Layer 1" fill='#ff6600' viewBox="0 0 100 125" x="0px" y="0px"><title>63</title><g data-name="Group"><path data-name="Compound Path" d="M64.4,27.8a11,11,0,0,0-10.7-8.4H14a11,11,0,0,0-11,11V62.7a9,9,0,0,0,9,9,12,12,0,0,0,23.2,0H65.9a12,12,0,0,0,23.2,0h8V42.6L87,27.8ZM23.5,74.7a6,6,0,1,1,6-6A6,6,0,0,1,23.5,74.7Zm0-18a12,12,0,0,0-11.6,9,3,3,0,0,1-3-3V30.3a5,5,0,0,1,5-5H53.7a5,5,0,0,1,5,5V65.7H35.1A12,12,0,0,0,23.5,56.7Zm54,18a6,6,0,1,1,6-6A6,6,0,0,1,77.5,74.7Zm13.5-9h-2a12,12,0,0,0-23.2,0H64.7V33.8H83.8L91,44.5Z"/><path data-name="Path" d="M47.2,30.3a3,3,0,0,0-4.2,0L29.5,43.7l-5-5A3,3,0,0,0,20.3,43l9.2,9.2L47.2,34.5A3,3,0,0,0,47.2,30.3Z"/><path data-name="Compound Path" d="M69.4,35.8V53.3H88.8V44.7L83,35.8ZM82.8,47.3H75.4V41.8h4.3l3,4.7Z"/></g></svg>